<svg xmlns="http://www.w3.org/2000/svg" width="1024" height="1024" viewBox="0 0 1024 1024">
<g>
<path d="M 479.50 920.94 C447.08,918.41 414.44,910.82 396.11,901.54 C385.44,896.14 382.00,891.33 382.00,881.85 C382.00,874.41 387.70,859.15 398.27,838.29 C400.00,834.87 401.12,831.78 400.75,831.42 C400.39,831.06 396.19,831.49 391.41,832.38 C360.25,838.16 326.93,836.21 298.78,826.97 C281.02,821.14 269.46,814.47 258.98,804.00 C248.71,793.75 244.77,786.79 242.40,774.71 C240.93,767.26 240.86,764.98 241.90,759.18 C243.98,747.53 250.88,737.91 261.40,731.97 C266.41,729.14 266.75,728.69 267.97,723.24 C269.83,714.90 273.42,707.43 276.54,705.38 C278.03,704.40 280.85,703.60 282.79,703.60 C285.63,703.60 286.95,704.34 289.60,707.41 L 292.89 711.21 L 295.70 709.21 C303.05,703.98 326.39,677.03 327.06,673.00 C327.32,671.43 323.48,662.41 322.22,661.63 C321.82,661.39 318.79,662.29 315.50,663.65 C307.51,666.93 292.15,670.82 283.54,671.75 C277.44,672.41 276.43,672.81 275.43,675.00 C270.33,686.11 267.84,690.20 263.32,694.89 C258.38,700.01 257.91,700.25 254.11,699.74 C245.52,698.59 238.41,689.65 233.04,673.29 L 229.83 663.50 L 209.67 653.79 C198.57,648.46 188.31,643.81 186.85,643.46 C184.33,642.86 184.10,643.13 182.51,648.67 C179.65,658.56 173.26,670.51 168.44,674.94 C164.73,678.37 163.38,679.00 159.77,678.99 C154.88,678.99 151.18,676.88 146.89,671.68 C143.24,667.25 137.69,656.14 134.93,647.73 C132.85,641.40 132.82,641.37 126.43,638.58 C114.51,633.39 102.70,620.25 95.72,604.43 C87.07,584.78 85.97,554.52 93.12,532.71 C94.24,529.29 95.99,522.52 97.02,517.66 C103.78,485.76 128.93,463.77 158.59,463.85 C174.12,463.89 187.87,469.47 199.92,480.63 L 206.78 486.98 L 217.14 485.39 C228.55,483.65 248.79,483.96 259.50,486.04 C265.31,487.17 265.77,487.10 274.00,483.76 C284.10,479.67 295.43,475.93 306.75,472.95 C312.09,471.55 315.00,470.29 315.00,469.39 C315.00,468.63 314.64,468.00 314.20,468.00 C312.49,468.00 302.95,454.10 299.09,446.00 C292.46,432.09 291.49,427.05 291.56,407.00 C291.63,390.61 291.81,388.96 294.43,381.00 C302.35,356.99 316.24,340.31 336.50,330.48 C346.35,325.71 355.53,323.00 361.88,323.00 C365.57,323.00 366.22,322.61 368.52,318.97 C372.31,312.96 384.67,300.33 391.50,295.49 C402.25,287.87 419.69,280.42 431.25,278.52 C435.32,277.86 435.65,277.48 433.75,275.65 C432.48,274.41 415.38,264.22 400.00,255.52 C378.25,243.22 336.16,218.49 333.14,216.24 C323.64,209.15 323.98,193.33 333.79,186.71 C335.83,185.33 346.27,180.96 357.00,177.00 C367.73,173.04 382.35,167.63 389.50,164.98 C396.65,162.33 419.83,153.79 441.00,146.00 C462.17,138.22 486.02,129.43 494.00,126.48 C526.96,114.27 558.96,102.65 565.88,100.37 C580.91,95.42 590.91,96.19 605.50,103.44 C616.89,109.09 684.87,145.09 708.00,157.72 C717.62,162.98 732.92,171.33 742.00,176.28 C751.08,181.24 760.64,186.62 763.25,188.25 C768.70,191.65 770.25,191.83 778.50,190.03 C793.98,186.67 810.67,197.46 812.61,212.10 C812.80,213.54 812.87,214.56 813.20,215.47 C814.21,218.24 817.62,220.13 834.00,229.98 C870.07,251.67 893.13,266.37 896.44,269.78 C900.92,274.39 902.34,278.68 901.80,286.03 C901.49,290.36 900.65,292.90 898.47,296.04 C897.70,297.15 897.22,297.99 896.62,298.76 C893.83,302.37 888.75,304.20 841.25,323.60 C822.42,331.29 817.13,333.84 817.57,335.00 C821.77,346.08 828.72,378.40 829.61,391.00 C830.17,398.85 830.03,399.77 827.83,402.98 C824.56,407.75 818.59,410.96 812.94,410.98 C810.43,410.99 807.57,411.59 806.58,412.31 C804.90,413.55 804.97,413.75 807.64,415.49 C812.59,418.72 822.11,428.33 824.49,432.50 C833.21,447.76 828.80,471.21 812.79,494.75 L 809.90 499.00 L 812.20 499.89 C825.21,504.96 833.61,508.75 839.33,512.14 C848.86,517.78 858.96,527.59 862.55,534.69 C870.80,550.96 862.39,573.44 839.61,596.00 C834.34,601.22 830.01,605.79 830.01,606.15 C830.00,606.51 834.55,609.60 840.12,613.02 C852.67,620.74 865.27,632.90 869.54,641.42 C872.09,646.53 872.50,648.46 872.50,655.47 C872.50,662.83 872.15,664.31 868.81,671.07 C862.58,683.68 846.50,699.29 828.25,710.46 C824.81,712.56 822.01,714.56 822.01,714.89 C822.02,715.23 825.01,718.42 828.66,722.00 C835.90,729.09 841.01,736.35 842.96,742.34 C845.06,748.76 843.94,758.66 840.28,766.07 C828.47,789.94 781.28,833.37 739.50,858.78 C701.68,881.80 664.92,897.17 620.61,908.49 C592.65,915.64 573.51,918.87 546.60,920.99 C531.99,922.14 494.49,922.11 479.50,920.94 ZM 481.50 906.01 C495.62,907.32 541.58,906.41 557.00,904.53 C626.97,895.96 688.34,873.95 742.77,837.89 C762.30,824.95 786.52,805.39 788.07,801.31 C788.58,799.97 789.00,795.19 789.01,790.68 C789.02,778.66 790.64,757.76 794.51,719.50 C799.55,669.57 800.33,655.20 799.68,624.00 C799.01,592.05 796.65,572.22 790.38,546.00 C779.26,499.48 759.92,461.84 734.18,436.62 C729.31,431.85 727.73,430.85 725.84,431.34 C724.55,431.67 719.22,433.13 714.00,434.59 C705.20,437.05 702.66,437.28 679.50,437.74 C665.75,438.01 653.71,438.64 652.75,439.15 C651.79,439.66 651.00,440.96 651.00,442.05 C651.00,443.14 650.09,447.43 648.98,451.58 C638.18,491.89 602.15,519.43 562.50,517.70 C539.67,516.71 521.04,508.66 505.17,492.92 C488.71,476.62 480.02,457.48 478.40,433.96 C477.73,424.19 477.61,423.80 474.60,421.53 C469.39,417.58 461.78,415.64 454.29,416.34 C450.67,416.68 446.13,417.77 444.20,418.77 C441.10,420.39 440.44,421.46 438.51,428.05 C431.84,450.91 416.22,469.42 397.25,476.95 C395.46,477.66 394.00,478.60 394.00,479.04 C394.00,479.47 396.85,481.42 400.33,483.37 C403.81,485.31 409.18,488.98 412.26,491.52 C417.65,495.96 423.61,502.72 422.82,503.51 C422.62,503.72 418.63,502.05 413.97,499.80 C401.77,493.90 392.95,490.37 384.72,488.07 C362.45,481.87 333.88,481.29 312.50,486.62 C303.25,488.93 284.00,495.25 284.00,495.98 C284.00,496.34 285.46,497.33 287.25,498.20 C296.84,502.82 309.17,516.50 313.02,526.79 C315.83,534.29 316.58,543.54 315.00,551.00 C313.54,557.89 312.33,559.36 311.47,555.29 C307.10,534.46 299.01,521.54 284.31,511.94 C270.57,502.97 255.58,499.04 235.00,499.02 C215.64,499.01 201.00,502.82 187.67,511.35 C184.46,513.40 182.00,514.44 182.00,513.74 C182.01,511.62 185.72,506.29 189.95,502.31 C192.17,500.21 194.00,498.00 194.00,497.40 C194.00,495.48 183.55,486.31 178.42,483.73 C169.04,479.00 157.90,477.83 147.68,480.50 C139.23,482.70 134.29,485.56 127.23,492.34 C119.98,499.29 112.98,511.95 110.98,521.67 C110.32,524.88 108.99,529.53 108.01,532.00 C104.11,541.90 102.54,552.00 102.63,566.50 C102.71,578.60 103.08,581.69 105.37,589.30 C108.70,600.37 112.86,608.66 117.58,613.63 C119.60,615.76 121.91,618.50 122.72,619.72 C123.53,620.95 126.74,623.20 129.85,624.72 C131.16,625.36 132.16,625.87 133.21,626.25 C137.07,627.68 141.50,627.54 164.00,627.01 C181.33,626.60 188.73,628.48 210.00,638.74 C242.93,654.61 252.44,657.39 274.00,657.44 C290.95,657.47 296.75,656.09 322.08,645.94 C356.01,632.34 374.81,630.15 427.50,633.65 C448.08,635.02 455.24,635.12 468.00,634.20 C509.96,631.18 546.21,618.46 573.66,597.12 C583.54,589.44 597.56,575.36 603.69,566.98 C607.94,561.17 614.00,550.90 614.00,549.53 C614.00,548.39 594.62,549.57 588.25,551.09 C585.37,551.78 582.70,552.04 582.33,551.66 C581.23,550.56 587.11,545.01 592.04,542.49 C607.12,534.80 627.58,534.64 642.21,542.11 C648.06,545.09 656.70,553.57 658.05,557.65 C660.20,564.16 658.88,564.34 649.02,558.85 C636.96,552.14 627.00,549.51 627.00,553.05 C627.00,553.55 623.83,560.84 619.96,569.23 C580.46,654.83 519.86,722.72 453.89,755.28 C418.72,772.63 390.61,779.83 354.46,780.74 C333.33,781.27 322.96,780.42 308.16,776.95 C286.33,771.83 269.26,761.19 264.13,749.50 L 262.81 746.50 L 260.41 749.50 C249.08,763.64 256.90,787.86 277.31,801.86 C297.25,815.54 329.99,823.16 362.00,821.58 C396.81,819.86 421.03,813.69 478.00,792.04 C494.23,785.87 522.58,775.73 541.00,769.51 C559.42,763.29 580.12,755.95 587.00,753.20 C646.72,729.31 683.86,699.54 704.82,658.75 C709.62,649.41 715.24,633.97 717.04,625.21 C718.04,620.32 721.00,604.69 721.00,604.25 C721.00,604.11 721.67,604.00 722.50,604.00 C723.33,604.00 724.01,603.44 724.03,602.75 C724.05,602.06 724.56,602.35 725.16,603.40 C727.39,607.24 724.06,635.88 719.82,649.39 C716.72,659.23 708.68,674.73 700.81,686.01 C680.86,714.63 657.33,734.11 620.00,752.92 C598.60,763.71 585.25,768.93 540.88,783.83 C519.77,790.93 497.10,798.87 490.50,801.48 C472.87,808.46 439.79,820.48 429.88,823.52 L 421.25 826.16 L 418.00 832.33 C404.24,858.41 396.69,876.20 397.19,881.32 C397.59,885.31 401.22,887.80 412.77,891.99 C430.47,898.42 456.21,903.67 481.50,906.01 ZM 744.49 289.50 L 743.82 346.27 L 746.16 345.73 C747.45,345.44 753.45,343.15 759.50,340.64 C773.93,334.67 776.42,331.22 771.88,323.53 C770.57,321.31 769.57,317.47 769.25,313.47 C768.60,305.41 770.59,299.68 776.10,293.77 L 780.02 289.56 L 779.76 251.66 L 779.50 213.75 L 760.50 203.28 C715.32,178.40 660.59,148.92 615.15,124.99 C592.69,113.16 591.52,112.67 584.65,112.24 C576.50,111.73 575.98,111.90 493.00,142.50 C469.62,151.12 445.10,160.12 438.50,162.50 C398.74,176.81 342.49,198.20 341.82,199.26 C340.27,201.69 341.05,203.93 344.25,206.29 C347.62,208.77 359.50,215.81 388.50,232.53 C397.85,237.92 414.27,247.51 425.00,253.83 C452.83,270.24 454.73,271.24 455.53,269.96 C455.90,269.35 458.69,264.04 461.73,258.17 C464.76,252.30 468.54,245.44 470.12,242.91 C471.90,240.07 473.00,236.96 473.00,234.74 C473.00,223.42 496.12,208.33 524.50,201.14 C540.90,196.99 554.10,195.72 575.00,196.28 C602.27,197.01 621.72,201.13 647.50,211.65 C686.53,227.58 726.26,258.41 741.72,284.78 L 744.49 289.50 ZM 714.68 398.27 C715.34,399.36 725.24,398.00 726.72,396.62 C727.64,395.77 728.12,382.53 728.64,343.79 L 729.32 292.11 L 725.29 286.80 C707.08,262.84 674.25,238.55 642.00,225.16 C602.45,208.73 559.79,205.70 521.55,216.60 C511.29,219.52 495.27,227.00 492.24,230.28 C489.71,233.01 483.18,244.85 482.71,247.53 C482.53,248.62 480.62,252.88 478.47,257.00 C473.83,265.91 468.83,277.16 469.29,277.62 C469.47,277.81 470.49,278.12 471.56,278.32 C473.48,278.69 474.40,279.03 484.82,283.17 C491.75,285.93 501.43,292.16 506.69,297.24 L 510.88 301.30 L 518.44 301.09 C525.44,300.91 526.58,300.56 533.53,296.45 C565.70,277.43 605.26,276.12 639.50,292.93 C672.72,309.24 696.86,341.04 711.06,387.21 C712.79,392.87 714.43,397.85 714.68,398.27 ZM 659.76 421.30 C670.98,421.94 703.79,421.55 704.57,420.76 C705.49,419.84 697.04,389.73 692.29,377.00 C690.34,371.77 687.04,364.10 684.96,359.95 C680.11,350.27 669.45,334.31 666.94,332.97 C665.87,332.40 665.00,331.30 665.00,330.53 C665.00,328.78 651.49,316.93 644.13,312.22 C630.72,303.64 615.97,298.61 599.18,296.89 C559.44,292.83 520.32,313.14 501.84,347.44 L 497.50 355.50 L 497.18 351.07 C496.71,344.41 502.85,328.93 510.26,318.14 L 513.25 313.78 L 508.96 314.51 C496.18,316.67 479.96,324.99 470.25,334.36 C464.44,339.98 463.38,338.95 467.93,332.09 C473.90,323.10 483.02,315.06 492.97,310.00 L 497.44 307.73 L 494.05 304.90 C489.35,300.98 477.75,295.45 470.14,293.51 C449.74,288.31 424.82,291.97 406.14,302.91 C398.68,307.27 384.00,320.24 384.00,322.46 C384.00,323.13 386.81,324.45 390.25,325.40 C418.50,333.23 438.66,359.71 441.99,393.35 C442.47,398.21 443.03,402.36 443.24,402.57 C443.44,402.78 445.38,402.46 447.54,401.86 C454.15,400.04 467.61,401.29 474.40,404.36 C477.65,405.83 480.37,406.91 480.44,406.76 C480.51,406.62 481.78,402.67 483.27,398.00 C486.94,386.45 493.65,375.40 502.83,365.78 C514.30,353.76 525.16,347.01 542.00,341.41 C549.92,338.78 551.63,338.58 567.00,338.54 C581.58,338.51 584.37,338.77 590.95,340.84 C611.40,347.26 627.58,359.43 638.83,376.86 C645.61,387.36 648.77,396.92 652.62,418.70 C652.97,420.67 653.74,420.95 659.76,421.30 ZM 320.50 765.33 C335.98,767.38 357.36,767.48 359.00,765.51 C359.90,764.41 361.21,764.20 363.87,764.70 C370.67,766.00 381.48,765.19 392.96,762.53 C407.93,759.06 429.12,751.90 430.08,750.00 C430.50,749.17 431.58,743.64 432.48,737.69 C434.43,724.78 437.24,716.95 441.56,712.37 C444.28,709.48 445.40,709.00 449.39,709.00 C453.42,709.00 454.62,709.53 458.32,712.94 C460.67,715.10 464.31,719.83 466.43,723.44 C468.54,727.05 470.48,730.00 470.74,730.00 C471.98,730.00 490.96,716.08 499.69,708.76 C514.09,696.69 527.97,683.00 529.49,679.37 C530.22,677.62 531.74,675.90 532.87,675.54 C537.60,674.04 562.74,641.61 577.79,617.59 C586.32,603.99 586.29,603.94 575.00,612.07 C571.42,614.64 564.26,619.19 559.07,622.17 L 549.64 627.59 L 547.85 635.91 C544.47,651.58 539.46,662.37 532.34,669.30 C529.48,672.07 526.58,674.00 525.25,674.00 C520.83,674.00 512.50,663.89 505.55,650.10 C502.77,644.57 501.52,643.01 500.21,643.40 C499.27,643.68 494.45,644.69 489.50,645.64 C478.94,647.67 446.20,648.03 402.92,646.58 C388.30,646.10 375.23,645.98 373.88,646.32 C371.80,646.84 371.22,647.88 370.16,653.00 C367.61,665.35 358.38,684.86 353.77,687.65 C353.00,688.12 350.74,691.20 348.75,694.50 C346.76,697.80 343.29,702.97 341.03,706.00 C335.08,713.99 316.51,732.51 309.25,737.71 C305.81,740.16 303.00,742.60 303.00,743.12 C303.00,745.64 307.40,761.65 308.38,762.68 C309.00,763.34 314.45,764.53 320.50,765.33 ZM 553.00 501.37 C554.38,501.64 560.90,501.71 567.50,501.53 C576.42,501.29 580.98,500.68 585.28,499.15 C605.31,492.02 623.29,474.64 630.61,455.36 C637.13,438.19 637.83,412.33 632.00,404.00 C631.04,402.62 629.91,399.92 629.50,398.00 C626.66,384.81 613.11,368.70 599.00,361.77 C583.68,354.24 565.72,352.11 550.41,356.02 C529.05,361.46 512.91,374.07 503.06,393.01 C497.02,404.62 494.79,414.06 494.72,428.43 C494.62,446.75 498.81,459.56 509.54,473.85 C519.39,486.94 537.43,498.37 553.00,501.37 ZM 364.00 469.46 C367.58,470.20 370.99,470.85 371.59,470.90 C373.10,471.04 382.96,467.59 386.90,465.55 L 390.13 463.88 L 386.02 460.90 C363.26,444.42 367.78,386.76 392.65,376.37 C396.90,374.60 403.86,374.62 408.13,376.42 C415.42,379.51 422.72,390.41 424.48,400.85 C424.98,403.84 425.53,404.87 426.24,404.16 C427.65,402.75 425.53,386.52 422.89,378.59 C419.97,369.81 414.02,360.34 407.32,353.84 C401.76,348.44 394.97,344.00 392.26,344.00 C391.57,344.00 391.00,343.58 391.00,343.07 C391.00,341.26 379.72,338.88 370.64,338.77 C352.72,338.57 340.06,343.84 326.97,356.95 C320.53,363.41 317.54,367.35 314.72,373.07 C310.11,382.45 310.01,384.00 314.00,384.00 C315.28,384.00 316.08,383.93 316.46,384.29 C317.12,384.91 316.56,386.81 315.13,392.50 C313.47,399.14 313.22,399.52 310.29,399.81 C307.51,400.08 307.15,400.51 306.59,404.31 C305.93,408.76 307.25,421.50 309.07,428.25 C312.60,441.38 321.66,454.76 333.34,464.12 L 338.18 468.00 L 347.84 468.06 C353.15,468.10 360.42,468.73 364.00,469.46 ZM 583.79 483.08 C581.46,484.29 578.12,484.99 574.79,484.96 C561.94,484.86 552.04,474.40 547.39,456.00 C545.07,446.84 545.94,426.15 549.02,417.01 C552.09,407.89 554.51,403.49 559.32,398.25 C564.71,392.38 569.86,390.05 577.50,390.03 C589.11,390.01 598.40,398.32 603.16,413.00 C606.17,422.30 606.84,441.10 604.52,451.67 C601.44,465.72 593.20,478.21 583.79,483.08 ZM 789.47 405.10 C792.38,406.34 798.08,405.37 800.19,403.26 C801.70,401.74 802.10,399.00 802.66,386.18 C803.02,377.79 803.66,371.27 804.07,371.71 C804.49,372.14 805.88,378.91 807.16,386.73 C808.63,395.69 809.98,401.16 810.81,401.47 C812.87,402.27 818.74,399.38 819.43,397.23 C820.68,393.29 815.55,365.97 809.25,343.00 C807.15,335.32 806.00,332.88 803.25,330.25 C801.39,328.46 800.32,327.00 800.89,327.00 C803.49,327.00 809.05,320.58 810.41,316.00 C813.64,305.12 806.85,296.00 795.50,296.00 C780.41,296.00 773.78,312.89 784.71,323.50 L 788.34 327.03 L 785.85 329.77 C784.49,331.27 782.17,336.10 780.70,340.50 C776.73,352.40 768.95,384.78 768.71,390.43 C768.51,395.01 768.74,395.52 771.90,397.68 C773.77,398.96 775.69,400.00 776.18,400.00 C776.34,400.00 776.47,400.01 776.58,399.99 C777.28,399.82 777.63,398.19 780.98,383.75 C782.73,376.19 784.52,370.00 784.96,370.00 C785.40,370.00 785.52,376.96 785.23,385.48 C784.68,401.87 784.96,403.17 789.47,405.10 ZM 821.64 314.20 C822.12,315.02 827.37,313.08 855.50,301.69 C881.64,291.10 885.32,289.78 886.18,287.44 C886.39,286.87 886.43,286.24 886.59,285.40 C886.97,283.35 886.85,280.99 886.32,280.15 C885.20,278.38 879.00,274.43 842.55,252.34 C827.73,243.35 815.08,236.00 814.45,236.00 C813.05,236.00 812.00,253.38 812.00,276.48 C812.00,292.60 812.01,292.66 814.60,295.08 C818.20,298.45 819.65,301.61 820.50,308.00 C820.90,311.02 821.41,313.81 821.64,314.20 ZM 786.11 486.75 C788.20,491.29 790.34,495.00 790.88,495.00 C792.38,495.00 798.68,487.25 803.67,479.26 C813.18,464.04 816.14,447.61 810.84,439.44 C804.40,429.49 786.42,418.38 769.50,413.90 C760.74,411.57 735.35,410.11 731.22,411.69 C729.09,412.51 729.42,412.95 736.32,418.53 C747.03,427.20 760.10,441.82 768.93,455.03 C776.41,466.20 778.00,469.14 786.11,486.75 ZM 813.58 594.75 C814.11,596.59 814.74,596.36 820.08,592.44 C827.75,586.81 840.11,572.93 844.89,564.57 C848.58,558.14 849.34,555.85 849.72,550.21 C850.12,544.09 849.90,543.10 847.23,538.94 C842.02,530.87 828.49,522.05 812.17,516.09 C805.07,513.50 797.00,511.60 797.00,512.52 C797.00,512.73 798.32,516.99 799.94,521.98 C804.65,536.50 810.10,563.82 812.11,583.00 C812.72,588.78 813.38,594.06 813.58,594.75 ZM 812.04 698.25 C812.02,699.76 812.35,701.00 812.77,701.00 C814.84,701.00 829.36,691.47 836.15,685.66 C848.37,675.20 858.01,661.88 857.97,655.50 C857.93,649.18 848.69,637.45 837.50,629.50 C832.53,625.97 818.08,618.00 816.65,618.00 C816.43,618.00 815.99,627.11 815.68,638.25 C815.36,649.39 814.42,666.83 813.59,677.00 C812.76,687.17 812.06,696.74 812.04,698.25 ZM 789.98 251.30 L 790.00 288.10 L 796.25 287.80 L 802.50 287.50 L 802.76 250.95 L 803.02 214.41 L 800.26 209.01 C796.64,201.93 792.65,199.78 783.84,200.20 L 777.50 200.50 L 781.83 203.31 C789.85,208.53 789.95,209.11 789.98,251.30 ZM 233.09 564.43 C228.26,568.46 227.75,568.61 225.99,566.48 C224.18,564.31 225.36,556.19 228.34,550.31 C231.19,544.69 239.50,536.53 244.49,534.44 C248.55,532.74 257.90,532.54 261.29,534.09 C267.20,536.78 269.16,546.77 265.07,553.39 C261.18,559.67 255.21,561.50 248.70,558.39 C245.53,556.88 245.10,556.91 241.35,558.82 C239.15,559.94 235.44,562.46 233.09,564.43 ZM 804.01 784.25 C803.95,788.88 822.66,768.01 827.09,758.50 C829.74,752.81 829.46,748.34 826.08,742.44 C823.30,737.60 811.92,726.00 809.94,726.00 C809.15,726.00 808.42,732.58 808.91,735.34 C808.99,735.81 808.38,740.31 807.54,745.34 C806.39,752.27 804.10,777.53 804.01,784.25 ZM 568.72 477.84 C577.62,480.32 583.63,477.88 590.37,469.05 C593.46,465.00 598.00,454.75 598.00,451.83 C598.00,450.66 591.83,446.99 590.87,447.58 C590.44,447.85 588.87,450.31 587.37,453.06 C584.31,458.68 579.77,462.00 575.13,462.00 C570.85,462.00 564.48,456.19 563.31,451.22 C562.23,446.65 559.37,445.89 555.00,449.00 C550.84,451.96 551.00,456.12 555.61,464.50 C560.10,472.67 563.85,476.48 568.72,477.84 ZM 566.99 430.55 C570.82,432.64 576.74,432.32 580.21,429.85 C588.92,423.65 589.28,406.19 580.81,401.03 C572.73,396.10 563.49,400.26 560.55,410.15 C559.74,412.88 559.34,416.55 559.67,418.31 C560.55,423.02 564.12,428.99 566.99,430.55 ZM 300.40 733.32 C300.92,734.91 301.76,734.54 307.00,730.42 C316.35,723.07 329.14,709.97 336.39,700.30 C340.03,695.46 343.00,690.97 343.00,690.32 C343.00,688.72 337.64,685.00 335.34,685.00 C334.21,685.00 331.38,687.75 328.18,691.95 C322.19,699.80 306.45,716.21 300.67,720.63 L 296.84 723.55 L 298.32 727.53 C299.14,729.71 300.07,732.32 300.40,733.32 ZM 756.75 395.79 C757.44,395.22 758.00,393.04 758.00,390.95 C758.00,388.85 759.37,381.15 761.04,373.82 C764.65,358.01 765.28,355.45 764.63,355.06 C764.46,354.96 764.20,355.00 763.89,355.00 C763.15,355.00 758.37,356.65 753.27,358.67 L 744.00 362.34 L 743.94 368.92 C743.90,372.54 743.66,380.08 743.40,385.67 C743.10,391.88 742.85,394.54 744.06,395.71 C745.07,396.70 747.10,396.63 751.00,396.72 C753.47,396.78 756.06,396.36 756.75,395.79 ZM 143.41 553.09 C142.47,554.14 141.38,555.00 141.00,555.00 C139.44,555.00 137.02,550.90 132.14,540.00 C128.02,530.80 126.99,527.43 127.00,523.17 C127.00,518.62 127.43,517.42 129.92,514.92 C135.53,509.32 143.28,512.50 146.41,521.69 C149.51,530.80 147.86,548.19 143.41,553.09 ZM 390.43 457.59 C396.36,460.17 398.36,459.48 405.79,452.25 C412.25,445.97 417.00,438.95 417.00,435.69 C417.00,433.74 413.13,430.44 412.17,431.57 C411.74,432.08 410.12,434.24 408.56,436.36 C404.93,441.31 399.83,443.59 395.97,441.99 C392.32,440.48 389.45,437.33 387.53,432.74 C385.77,428.51 385.02,428.29 380.83,430.75 C377.93,432.45 377.86,432.67 378.52,437.93 C378.89,440.92 379.61,444.48 380.13,445.83 C381.67,449.90 387.17,456.16 390.43,457.59 ZM 390.55 411.91 C394.78,415.62 398.42,415.87 403.02,412.75 C412.15,406.54 412.76,390.03 404.03,385.52 C398.12,382.46 391.31,384.14 388.02,389.47 C383.49,396.80 384.60,406.69 390.55,411.91 ZM 351.93 673.45 C353.62,670.95 355.00,668.22 355.00,667.40 C355.00,666.58 355.75,664.46 356.66,662.70 C358.61,658.92 361.10,649.97 360.47,648.95 C359.29,647.05 331.86,655.44 332.76,657.43 C334.57,661.44 340.72,672.24 342.63,674.75 C346.01,679.20 348.26,678.89 351.93,673.45 ZM 162.99 664.01 C167.78,658.88 173.55,642.08 171.05,640.53 C169.72,639.71 148.72,640.93 147.11,641.93 C145.83,642.73 148.02,651.13 151.06,657.12 C153.31,661.52 157.81,667.00 159.19,667.00 C159.74,667.00 161.45,665.66 162.99,664.01 ZM 522.38 658.75 C525.82,662.46 527.04,662.72 529.29,660.23 C533.50,655.58 540.65,635.31 538.74,633.41 C538.39,633.05 532.27,634.68 525.16,637.02 L 512.24 641.29 L 514.27 645.89 C516.96,652.01 518.75,654.85 522.38,658.75 ZM 287.39 756.08 C296.44,760.60 297.99,760.29 296.24,754.28 C295.64,752.20 294.15,746.90 292.94,742.50 C289.34,729.45 286.48,725.11 282.46,726.65 C280.28,727.49 278.50,731.39 276.47,739.78 L 274.71 747.07 L 277.08 749.58 C278.37,750.96 283.02,753.89 287.39,756.08 ZM 441.37 744.51 C441.68,745.33 442.19,746.00 442.50,746.00 C443.27,746.00 452.54,741.31 457.73,738.29 L 461.95 735.84 L 459.48 730.96 C456.55,725.18 451.35,719.00 449.42,719.00 C448.66,719.00 447.35,720.06 446.50,721.36 C444.61,724.24 440.58,742.45 441.37,744.51 ZM 256.51 686.75 C260.72,680.86 264.98,673.44 264.68,672.54 C264.50,671.99 262.35,671.20 259.92,670.79 C257.49,670.38 252.86,669.55 249.64,668.96 C246.42,668.36 243.55,668.12 243.26,668.41 C242.35,669.32 247.14,680.89 250.14,685.04 C253.45,689.61 254.31,689.84 256.51,686.75 ZM 445.38 687.69 C441.96,690.42 440.44,690.59 439.58,688.34 C439.17,687.27 439.92,685.65 441.66,683.84 C444.92,680.43 445.14,680.40 446.89,683.19 C448.13,685.19 448.00,685.59 445.38,687.69 ZM 500.96 668.54 C499.64,670.14 498.76,670.20 495.00,669.00 C493.62,668.56 493.17,668.15 494.00,668.08 C495.21,667.99 495.24,667.80 494.17,667.12 C493.10,666.45 493.17,666.15 494.50,665.64 C499.16,663.85 503.31,665.71 500.96,668.54 ZM 431.30 673.50 C431.41,674.05 430.38,674.60 429.00,674.72 C427.62,674.85 427.07,674.70 427.76,674.39 C428.45,674.08 428.73,673.37 428.39,672.82 C428.04,672.25 428.50,671.96 429.43,672.15 C430.35,672.34 431.19,672.95 431.30,673.50 ZM 360.00 742.00 C360.00,742.55 359.33,743.00 358.50,743.00 C357.67,743.00 357.00,742.55 357.00,742.00 C357.00,741.45 357.67,741.00 358.50,741.00 C359.33,741.00 360.00,741.45 360.00,742.00 Z" fill="rgba(0,2,0,1)"/>
<path d="M 774.00 225.02 C775.92,226.08 777.83,226.96 778.23,226.98 C778.80,227.00 779.28,225.96 779.57,224.36 L 779.76 251.66 L 780.02 289.56 L 776.10 293.77 C770.59,299.68 768.60,305.41 769.25,313.47 C769.57,317.47 770.57,321.31 771.88,323.53 C776.42,331.22 773.93,334.67 759.50,340.64 C753.45,343.15 747.45,345.44 746.16,345.73 L 743.82 346.27 L 744.49 289.50 L 741.72 284.78 C726.26,258.41 686.53,227.58 647.50,211.65 C621.72,201.13 602.27,197.01 575.00,196.28 C554.10,195.72 540.90,196.99 524.50,201.14 C496.12,208.33 473.00,223.42 473.00,234.74 C473.00,236.96 471.90,240.07 470.12,242.91 C468.54,245.44 464.76,252.30 461.73,258.17 C458.69,264.04 455.90,269.35 455.53,269.96 C454.73,271.24 452.83,270.24 425.00,253.83 C414.27,247.51 397.85,237.92 388.50,232.53 C365.78,219.43 353.57,212.27 347.72,208.59 C350.31,209.02 355.62,206.88 376.50,199.20 C386.95,195.35 424.98,181.41 461.00,168.21 C497.02,155.02 537.30,140.24 550.50,135.36 C573.28,126.95 574.91,126.50 582.50,126.50 L 590.50 126.50 L 616.00 139.90 C666.15,166.24 677.88,172.48 706.00,187.78 C729.81,200.73 758.29,216.33 774.00,225.02 ZM 714.68 398.27 C714.43,397.85 712.79,392.87 711.06,387.21 C701.57,356.36 687.64,331.93 669.54,314.24 C674.40,318.83 678.97,323.59 681.95,327.33 L 686.39 332.89 L 691.44 332.35 C695.27,331.94 696.35,331.89 696.73,331.35 C696.92,331.07 696.93,330.66 697.02,330.00 C697.48,326.77 696.95,323.91 696.00,324.50 C695.45,324.84 695.00,324.42 695.00,323.56 C695.00,322.70 695.61,322.00 696.36,322.00 C698.06,322.00 698.98,314.99 698.99,301.90 C699.00,292.94 698.81,292.04 696.17,288.40 C694.61,286.26 692.55,283.85 691.59,283.06 C690.63,282.27 688.76,279.49 687.43,276.87 C681.44,265.04 648.23,243.06 623.00,234.23 C612.97,230.72 591.19,226.25 578.50,225.11 C546.24,222.19 506.59,231.23 487.89,245.74 C483.73,248.98 481.54,251.40 479.18,255.61 C481.02,251.96 482.55,248.49 482.71,247.53 C483.18,244.85 489.71,233.01 492.24,230.28 C495.27,227.00 511.29,219.52 521.55,216.60 C559.79,205.70 602.45,208.73 642.00,225.16 C674.25,238.55 707.08,262.84 725.29,286.80 L 729.32 292.11 L 728.64 343.79 C728.12,382.53 727.64,395.77 726.72,396.62 C725.24,398.00 715.34,399.36 714.68,398.27 ZM 821.64 314.20 C821.41,313.81 820.90,311.02 820.50,308.00 C819.65,301.61 818.20,298.45 814.60,295.08 C812.01,292.66 812.00,292.60 812.00,276.48 C812.00,262.50 812.39,250.62 813.00,243.42 L 813.00 248.86 L 820.25 252.97 C831.86,259.55 874.38,285.37 877.58,287.78 C879.18,289.00 881.62,289.88 883.00,289.74 C883.49,289.70 883.90,289.61 884.26,289.46 C881.32,291.32 874.09,294.16 855.50,301.69 C827.37,313.08 822.12,315.02 821.64,314.20 ZM 813.58 594.75 C813.38,594.06 812.72,588.78 812.11,583.00 C810.18,564.65 805.11,538.85 800.55,523.93 C801.88,528.25 803.52,533.91 804.61,538.00 C807.11,547.43 809.44,551.37 813.50,553.05 C817.11,554.54 823.63,554.04 832.64,551.59 C844.77,548.28 849.45,546.44 849.78,544.84 C849.78,544.82 849.78,544.80 849.79,544.79 C849.94,546.13 849.88,547.76 849.72,550.21 C849.34,555.85 848.58,558.14 844.89,564.57 C840.11,572.93 827.75,586.81 820.08,592.44 C814.74,596.36 814.11,596.59 813.58,594.75 ZM 812.04 698.25 C812.06,696.74 812.76,687.17 813.59,677.00 C814.42,666.83 815.36,649.39 815.68,638.25 C815.85,632.09 816.06,626.55 816.26,622.83 C816.10,626.78 815.92,632.89 815.77,639.68 C815.34,658.22 815.48,661.06 816.89,662.52 C819.26,664.97 828.34,663.87 840.50,659.64 C846.00,657.73 851.85,656.01 853.50,655.83 C857.17,655.43 857.51,652.40 855.41,648.19 C857.03,650.97 857.96,653.51 857.97,655.50 C858.01,661.88 848.37,675.20 836.15,685.66 C829.36,691.47 814.84,701.00 812.77,701.00 C812.35,701.00 812.02,699.76 812.04,698.25 ZM 568.72 477.84 C563.85,476.48 560.10,472.67 555.61,464.50 C551.00,456.12 550.84,451.96 555.00,449.00 C559.37,445.89 562.23,446.65 563.31,451.22 C564.48,456.19 570.85,462.00 575.13,462.00 C579.77,462.00 584.31,458.68 587.37,453.06 C588.87,450.31 590.44,447.85 590.87,447.58 C591.83,446.99 598.00,450.66 598.00,451.83 C598.00,454.75 593.46,465.00 590.37,469.05 C583.63,477.88 577.62,480.32 568.72,477.84 ZM 390.43 457.59 C387.17,456.16 381.67,449.90 380.13,445.83 C379.61,444.48 378.89,440.92 378.52,437.93 C377.86,432.67 377.93,432.45 380.83,430.75 C385.02,428.29 385.77,428.51 387.53,432.74 C389.45,437.33 392.32,440.48 395.97,441.99 C399.83,443.59 404.93,441.31 408.56,436.36 C410.12,434.24 411.74,432.08 412.17,431.57 C413.13,430.44 417.00,433.74 417.00,435.69 C417.00,438.95 412.25,445.97 405.79,452.25 C398.36,459.48 396.36,460.17 390.43,457.59 ZM 786.11 486.75 C778.00,469.14 776.41,466.20 768.93,455.03 C768.61,454.55 768.29,454.07 767.95,453.59 C771.60,458.76 774.97,464.05 777.90,469.25 C781.30,475.27 782.99,476.10 787.32,473.88 C790.94,472.02 794.93,467.90 800.76,460.00 C803.80,455.88 807.80,451.23 809.65,449.68 C812.01,447.69 813.03,446.15 812.81,444.17 C814.97,453.06 811.59,466.58 803.67,479.26 C798.68,487.25 792.38,495.00 790.88,495.00 C790.34,495.00 788.20,491.29 786.11,486.75 ZM 804.01 784.25 C804.10,777.53 806.39,752.27 807.54,745.34 C807.70,744.36 807.86,743.40 808.00,742.48 C807.88,743.59 807.74,744.80 807.58,746.13 L 806.79 752.76 L 809.65 753.81 C811.22,754.39 813.85,754.61 815.50,754.29 C817.15,753.98 820.75,753.45 823.50,753.11 C826.78,752.71 828.50,751.94 828.83,750.25 C829.05,752.92 828.47,755.55 827.09,758.50 C822.66,768.01 803.95,788.88 804.01,784.25 ZM 719.78 611.01 C719.89,610.34 719.99,609.67 720.09,609.00 C720.77,604.33 721.37,600.44 721.42,600.37 C721.46,600.31 722.58,599.91 723.91,599.51 L 726.32 598.76 L 725.86 607.83 C725.80,605.67 725.58,604.11 725.16,603.40 C724.56,602.35 724.05,602.06 724.03,602.75 C724.01,603.44 723.33,604.00 722.50,604.00 C721.67,604.00 721.00,604.11 721.00,604.25 C721.00,604.44 720.47,607.35 719.78,611.01 ZM 695.00 342.50 C695.00,343.33 695.45,344.00 696.00,344.00 C696.55,344.00 697.00,343.33 697.00,342.50 C697.00,341.67 696.55,341.00 696.00,341.00 C695.45,341.00 695.00,341.67 695.00,342.50 ZM 661.38 306.96 C654.60,301.44 647.30,296.76 639.50,292.93 C629.42,287.98 618.87,284.60 608.19,282.78 C623.96,285.43 639.35,291.43 653.29,300.75 C655.61,302.30 658.42,304.47 661.38,306.96 ZM 716.68 657.60 C712.90,667.00 707.74,676.09 700.81,686.01 C706.73,677.52 712.75,666.65 716.68,657.60 ZM 587.00 753.20 C624.57,738.18 653.71,720.43 675.17,699.18 C653.82,720.45 624.97,738.02 587.00,753.20 ZM 833.03 526.18 C839.24,530.13 844.09,534.36 846.88,538.42 C843.82,534.57 838.70,530.02 833.03,526.18 ZM 702.60 662.92 C709.32,650.54 714.26,637.21 717.52,622.83 C717.33,623.77 717.17,624.58 717.04,625.21 C715.24,633.97 709.62,649.41 704.82,658.75 C704.10,660.15 703.36,661.54 702.60,662.92 ZM 814.38 236.02 C814.40,236.01 814.43,236.00 814.45,236.00 C815.08,236.00 827.73,243.35 842.55,252.34 C842.86,252.53 843.17,252.71 843.47,252.90 C828.58,243.96 815.66,236.41 814.38,236.02 ZM 886.73 284.38 C886.70,284.72 886.65,285.06 886.59,285.40 C886.43,286.24 886.39,286.87 886.18,287.44 C886.00,287.91 885.72,288.34 885.16,288.81 C885.69,288.20 886.06,287.23 886.45,285.67 C886.56,285.21 886.66,284.78 886.73,284.38 ZM 805.32 513.88 C807.51,514.50 809.89,515.26 812.17,516.09 C814.32,516.88 816.42,517.71 818.46,518.58 C814.02,516.76 809.24,515.07 805.32,513.88 ZM 816.60 618.15 C816.62,618.05 816.63,618.00 816.65,618.00 C817.40,618.00 821.75,620.20 826.43,622.80 C821.66,620.18 817.28,618.03 816.60,618.15 ZM 883.87 277.97 C885.37,279.05 886.03,279.68 886.32,280.15 C886.49,280.41 886.61,280.82 886.70,281.33 C886.33,280.23 885.47,279.22 883.87,277.97 ZM 816.41 731.10 C820.17,734.79 824.41,739.59 826.02,742.34 C824.25,739.47 820.09,734.74 816.41,731.10 ZM 808.77 733.89 C808.72,732.68 808.78,731.22 808.92,729.89 C808.89,731.29 808.84,732.58 808.77,733.89 ZM 809.00 436.94 C809.69,437.78 810.31,438.61 810.84,439.44 C811.25,440.06 811.60,440.73 811.91,441.45 C811.57,440.76 811.13,440.00 810.61,439.17 C810.14,438.43 809.61,437.69 809.00,436.94 ZM 751.32 432.87 C746.24,427.35 741.05,422.36 736.32,418.53 C741.18,422.47 746.29,427.37 751.32,432.87 ZM 342.55 204.81 C341.31,203.50 340.85,202.21 341.13,200.87 C340.86,202.18 341.32,203.45 342.55,204.81 ZM 800.26 522.97 C800.15,522.63 800.04,522.30 799.94,521.98 C799.59,520.89 799.25,519.84 798.94,518.86 C799.13,519.46 799.33,520.08 799.54,520.72 C799.76,521.39 800.00,522.15 800.26,522.97 ZM 723.84 630.71 C723.63,632.13 723.40,633.53 723.15,634.90 C723.39,633.52 723.62,632.12 723.84,630.71 ZM 809.88 726.01 C809.90,726.01 809.92,726.00 809.94,726.00 C809.95,726.00 809.95,726.00 809.96,726.00 C809.93,726.00 809.90,726.01 809.88,726.01 Z" fill="rgba(12,55,36,1)"/>
<path d="M 681.95 327.33 C675.47,319.21 661.46,306.21 653.29,300.75 C616.83,276.36 570.33,274.69 533.53,296.45 C526.58,300.56 525.44,300.91 518.44,301.09 L 510.88 301.30 L 506.69 297.24 C501.43,292.16 491.75,285.93 484.82,283.17 C477.12,280.11 474.61,279.13 473.05,278.67 C474.03,278.84 474.82,278.89 475.55,278.70 C478.15,278.01 479.90,274.17 486.26,261.20 C491.07,251.41 495.00,243.11 495.00,242.76 C495.00,242.41 492.19,243.82 488.75,245.90 C483.28,249.20 482.00,250.61 478.49,257.09 C477.27,259.34 475.74,262.38 474.27,265.44 C475.51,262.81 476.86,260.05 478.17,257.50 C480.97,252.06 483.14,249.43 487.89,245.74 C506.59,231.23 546.24,222.19 578.50,225.11 C591.19,226.25 612.97,230.72 623.00,234.23 C648.23,243.06 681.44,265.04 687.43,276.87 C688.76,279.49 690.63,282.27 691.59,283.06 C692.55,283.85 694.61,286.26 696.17,288.40 C698.81,292.04 699.00,292.94 698.99,301.90 C698.98,314.99 698.06,322.00 696.36,322.00 C695.61,322.00 695.00,322.70 695.00,323.56 C695.00,324.42 695.45,324.84 696.00,324.50 C696.95,323.91 697.48,326.77 697.02,330.00 C696.93,330.66 696.92,331.07 696.73,331.35 C696.35,331.89 695.27,331.94 691.44,332.35 L 686.39 332.89 ZM 774.00 225.02 C758.29,216.33 729.81,200.73 706.00,187.78 C677.88,172.48 666.15,166.24 616.00,139.90 L 590.50 126.50 L 582.50 126.50 C574.91,126.50 573.28,126.95 550.50,135.36 C537.30,140.24 497.02,155.02 461.00,168.21 C424.98,181.41 386.95,195.35 376.50,199.20 C352.95,207.87 349.21,209.48 346.83,208.31 C346.12,207.96 345.53,207.35 344.57,206.62 C341.07,203.95 340.24,201.74 341.82,199.26 C342.49,198.20 398.74,176.81 438.50,162.50 C445.10,160.12 469.62,151.12 493.00,142.50 C575.98,111.90 576.50,111.73 584.65,112.24 C591.52,112.67 592.69,113.16 615.15,124.99 C660.39,148.82 714.55,177.99 760.50,203.28 L 779.50 213.73 L 779.82 218.04 C780.16,222.71 779.40,227.01 778.23,226.98 C777.83,226.96 775.92,226.08 774.00,225.02 ZM 777.90 469.25 C767.22,450.31 750.71,430.18 736.32,418.53 C729.42,412.95 729.09,412.51 731.22,411.69 C735.35,410.11 760.74,411.57 769.50,413.90 C786.26,418.34 804.56,429.59 810.61,439.17 C813.82,444.25 813.63,446.33 809.65,449.68 C807.80,451.23 803.80,455.88 800.76,460.00 C794.93,467.90 790.94,472.02 787.32,473.88 C782.99,476.10 781.30,475.27 777.90,469.25 ZM 813.50 553.05 C809.44,551.37 807.11,547.43 804.61,538.00 C803.22,532.78 800.94,525.00 799.54,520.72 C798.14,516.44 797.00,512.76 797.00,512.53 C797.00,510.69 815.49,516.69 825.68,521.84 C838.03,528.07 850.73,540.19 849.78,544.84 C849.45,546.44 844.77,548.28 832.64,551.59 C823.63,554.04 817.11,554.54 813.50,553.05 ZM 816.89 662.52 C815.48,661.06 815.34,658.22 815.77,639.68 C816.03,628.03 816.37,618.36 816.52,618.19 C817.10,617.52 831.79,625.44 837.50,629.50 C853.09,640.57 861.80,654.91 853.50,655.83 C851.85,656.01 846.00,657.73 840.50,659.64 C828.34,663.87 819.26,664.97 816.89,662.52 ZM 877.58 287.78 C874.38,285.37 831.86,259.55 820.25,252.97 L 813.00 248.86 L 813.00 242.43 C813.00,237.82 813.37,236.00 814.30,236.00 C815.44,236.00 855.56,259.93 877.43,273.65 C886.97,279.64 887.70,280.61 886.45,285.67 C885.69,288.72 884.99,289.55 883.00,289.74 C881.62,289.88 879.18,289.00 877.58,287.78 ZM 809.65 753.81 L 806.79 752.76 L 807.58 746.13 C808.54,738.01 808.82,734.60 808.92,729.75 C808.97,727.69 809.43,726.00 809.96,726.00 C812.01,726.00 823.74,738.11 826.37,742.94 C830.35,750.25 829.76,752.35 823.50,753.11 C820.75,753.45 817.15,753.98 815.50,754.29 C813.85,754.61 811.22,754.39 809.65,753.81 ZM 662.21 726.92 C660.80,728.09 659.86,728.88 659.66,729.06 C658.47,730.09 660.90,734.25 662.36,733.69 C663.03,733.43 663.57,734.03 663.57,735.03 C663.57,736.24 662.65,736.97 660.77,737.25 C657.65,737.71 655.46,735.85 656.36,733.51 C656.68,732.68 656.70,732.00 656.42,732.00 C656.13,732.00 651.31,734.95 645.70,738.56 C642.40,740.68 638.28,743.10 633.71,745.63 C644.33,739.65 653.72,733.50 662.21,726.92 ZM 751.25 416.34 C752.93,417.01 754.04,416.95 757.00,416.00 C758.61,415.48 758.89,415.16 757.78,415.10 C756.68,415.04 756.27,414.46 756.64,413.50 C757.07,412.37 756.50,412.02 754.36,412.07 C751.86,412.13 751.75,412.25 753.50,413.00 C755.27,413.76 755.19,413.87 752.75,413.93 C749.92,414.00 749.03,415.44 751.25,416.34 ZM 705.57 657.14 C712.77,642.10 717.90,625.03 720.04,608.45 C721.68,595.75 721.79,595.33 723.44,595.33 C724.35,595.33 724.99,596.70 725.39,599.05 L 723.91 599.51 C722.58,599.91 721.46,600.31 721.42,600.37 C721.37,600.44 720.77,604.33 720.09,609.00 C717.53,626.44 712.73,642.44 705.57,657.14 ZM 653.30 746.34 C653.62,747.17 653.23,748.39 652.44,749.05 C651.31,749.99 651.00,749.95 651.02,748.87 C651.02,748.12 651.41,746.90 651.88,746.17 C652.56,745.08 652.83,745.12 653.30,746.34 ZM 725.88 607.33 C725.82,619.32 723.51,637.62 719.82,649.39 C718.59,653.30 716.93,657.44 714.93,661.71 C721.58,646.94 724.64,631.78 725.67,611.63 L 725.88 607.33 ZM 695.00 342.50 C695.00,341.67 695.45,341.00 696.00,341.00 C696.55,341.00 697.00,341.67 697.00,342.50 C697.00,343.33 696.55,344.00 696.00,344.00 C695.45,344.00 695.00,343.33 695.00,342.50 ZM 603.69 760.73 C599.52,762.63 595.52,764.37 591.88,765.84 C589.39,766.84 584.84,768.53 579.06,770.61 C588.86,767.02 596.44,763.97 603.69,760.73 Z" fill="rgba(33,83,57,1)"/>
<path d="M 720.92 645.54 C725.98,626.20 727.77,595.33 723.44,595.33 C721.85,595.33 721.69,595.72 720.21,607.14 C720.83,602.07 721.04,597.57 721.06,591.79 C721.11,577.77 720.75,574.78 717.75,564.50 C711.68,543.66 697.01,528.36 678.46,523.53 C670.64,521.49 654.93,521.54 647.93,523.61 C638.75,526.34 624.45,534.78 626.14,536.47 C626.37,536.70 628.03,537.28 630.18,537.91 C625.15,536.83 619.85,536.42 614.58,536.70 C616.24,536.17 617.47,534.76 620.42,531.00 C625.20,524.91 627.39,523.20 631.31,522.44 C632.51,522.21 633.65,521.54 633.85,520.95 C634.69,518.42 638.96,515.76 645.48,513.71 C651.29,511.88 654.75,511.51 665.50,511.57 C676.81,511.62 679.43,511.97 685.68,514.19 C710.79,523.15 728.08,546.59 732.01,577.00 C734.27,594.53 730.05,625.26 723.55,638.50 C722.96,639.70 721.92,642.51 720.92,645.54 ZM 631.85 888.52 C632.17,888.84 632.41,889.01 633.61,888.76 C628.07,890.41 622.46,891.96 616.79,893.40 C617.99,892.99 618.77,892.62 619.06,892.32 C619.51,891.87 620.61,884.30 621.52,875.50 C622.93,861.73 624.44,851.63 628.98,825.50 C630.82,814.95 638.81,785.22 645.41,764.40 C649.03,752.98 655.54,734.60 656.54,732.94 C656.49,733.12 656.43,733.31 656.36,733.51 C655.46,735.85 657.65,737.71 660.77,737.25 C662.65,736.97 663.57,736.24 663.57,735.03 C663.57,734.03 663.03,733.43 662.36,733.69 C660.90,734.25 658.47,730.09 659.66,729.06 C660.12,728.66 664.51,725.00 669.40,720.93 C675.53,715.84 681.67,709.70 687.48,703.01 C682.15,709.28 677.01,714.85 674.54,716.79 C672.76,718.19 671.19,721.28 669.52,726.67 C668.18,730.97 664.79,741.02 661.99,748.99 C650.99,780.24 641.74,815.63 636.51,846.41 C633.85,862.08 631.02,887.68 631.85,888.52 ZM 470.75 278.21 C469.79,278.01 469.00,277.69 469.00,277.49 C469.00,276.44 475.01,263.52 478.49,257.09 C482.00,250.61 483.28,249.20 488.75,245.90 C492.19,243.82 495.00,242.41 495.00,242.76 C495.00,243.11 491.07,251.41 486.26,261.20 C479.90,274.17 478.15,278.01 475.55,278.70 C474.33,279.03 472.92,278.66 470.75,278.21 ZM 751.25 416.34 C749.03,415.44 749.92,414.00 752.75,413.93 C755.19,413.87 755.27,413.76 753.50,413.00 C751.75,412.25 751.86,412.13 754.36,412.07 C756.50,412.02 757.07,412.37 756.64,413.50 C756.27,414.46 756.68,415.04 757.78,415.10 C758.89,415.16 758.61,415.48 757.00,416.00 C754.04,416.95 752.93,417.01 751.25,416.34 ZM 635.77 429.91 C635.94,426.77 635.94,423.59 635.77,420.40 C635.33,412.06 635.00,410.72 632.78,408.51 C630.97,406.70 630.13,404.55 629.73,400.70 C629.09,394.48 625.91,387.49 621.19,380.99 C625.32,386.59 628.32,392.54 629.50,398.00 C629.91,399.92 631.04,402.62 632.00,404.00 C635.27,408.67 636.48,418.84 635.77,429.91 ZM 653.30 746.34 C652.83,745.12 652.56,745.08 651.88,746.17 C651.41,746.90 651.02,748.12 651.02,748.87 C651.00,749.95 651.31,749.99 652.44,749.05 C653.23,748.39 653.62,747.17 653.30,746.34 ZM 379.55 820.21 C373.87,820.84 368.10,821.28 362.00,821.58 C355.71,821.89 349.38,821.85 343.14,821.47 C353.53,821.75 368.65,821.24 379.55,820.21 ZM 704.09 660.15 C701.57,665.14 698.81,669.88 695.87,674.27 C689.76,683.36 682.63,691.90 674.41,699.93 C686.62,687.93 696.41,674.75 704.09,660.15 ZM 607.14 486.73 C612.66,482.01 618.36,476.07 622.20,470.84 C618.00,476.71 612.87,482.11 607.14,486.73 ZM 624.95 466.73 C628.72,460.55 631.56,453.54 633.41,446.05 C632.64,449.32 631.71,452.46 630.61,455.36 C629.13,459.25 627.22,463.06 624.95,466.73 ZM 694.70 694.19 C699.19,688.38 703.36,682.33 707.04,676.30 C705.00,679.74 702.85,683.09 700.68,686.21 C699.04,688.55 696.97,691.30 694.70,694.19 ZM 680.23 871.82 C667.70,877.25 654.83,882.07 641.62,886.29 C643.39,885.70 645.51,884.99 648.04,884.14 C659.06,880.44 669.77,876.34 680.23,871.82 ZM 610.71 537.02 C606.31,537.53 601.98,538.51 597.90,539.97 C602.45,538.31 607.24,537.18 610.71,537.02 ZM 567.50 501.53 C575.33,501.32 580.39,500.74 585.60,499.03 C585.49,499.07 585.38,499.11 585.28,499.15 C580.98,500.68 576.42,501.29 567.50,501.53 ZM 649.02 558.85 C654.98,562.17 657.82,563.42 658.66,562.44 C658.65,562.46 658.65,562.48 658.64,562.49 C658.23,563.57 655.96,562.71 649.02,558.85 ZM 655.18 553.10 C653.20,550.70 650.48,548.05 647.75,545.84 C649.03,546.84 650.31,547.96 651.63,549.21 C652.98,550.48 654.17,551.80 655.18,553.10 ZM 478.00 792.04 C453.08,801.51 434.43,808.02 418.41,812.49 C434.10,808.10 452.67,801.66 478.00,792.04 ZM 719.99 608.87 C719.49,612.59 718.85,616.34 718.07,620.08 C718.92,615.73 719.54,612.15 719.99,608.87 ZM 557.00 904.53 C564.18,903.65 571.95,902.50 579.50,901.26 C572.10,902.51 564.60,903.60 557.00,904.53 ZM 656.57 732.12 C656.13,732.17 655.11,732.69 653.28,733.79 C655.09,732.68 656.28,732.00 656.42,732.00 C656.49,732.00 656.54,732.04 656.57,732.12 ZM 658.81 560.36 C658.70,559.82 658.53,559.19 658.31,558.46 C658.56,559.13 658.73,559.77 658.81,560.36 ZM 591.50 542.78 C588.99,544.16 586.31,546.23 584.47,548.05 C586.31,546.22 589.00,544.14 591.50,542.78 Z" fill="rgba(68,96,50,1)"/>
<path d="M 320.50 765.33 C314.45,764.53 309.00,763.34 308.38,762.68 C307.40,761.65 303.00,745.64 303.00,743.12 C303.00,742.60 305.81,740.16 309.25,737.71 C316.51,732.51 335.08,713.99 341.03,706.00 C343.29,702.97 346.76,697.80 348.75,694.50 C350.74,691.20 353.00,688.12 353.77,687.65 C358.38,684.86 367.61,665.35 370.16,653.00 C371.22,647.88 371.80,646.84 373.88,646.32 C375.23,645.98 388.30,646.10 402.92,646.58 C446.20,648.03 478.94,647.67 489.50,645.64 C494.45,644.69 499.27,643.68 500.21,643.40 C501.52,643.01 502.77,644.57 505.55,650.10 C512.50,663.89 520.83,674.00 525.25,674.00 C526.58,674.00 529.48,672.07 532.34,669.30 C539.46,662.37 544.47,651.58 547.85,635.91 L 549.64 627.59 L 559.07 622.17 C564.26,619.19 571.42,614.64 575.00,612.07 C586.29,603.94 586.32,603.99 577.79,617.59 C562.74,641.61 537.60,674.04 532.87,675.54 C531.74,675.90 530.22,677.62 529.49,679.37 C527.97,683.00 514.09,696.69 499.69,708.76 C499.58,708.86 499.47,708.95 499.35,709.05 C508.69,700.74 528.00,681.81 528.00,680.81 C528.00,679.47 519.55,675.19 512.50,672.97 C503.48,670.12 486.71,669.86 477.00,672.43 C461.66,676.49 445.52,686.52 432.03,700.38 C429.03,703.47 426.19,706.00 425.73,706.00 C425.26,706.00 426.36,703.19 428.16,699.75 C430.30,695.68 434.52,690.46 440.25,684.78 C448.82,676.29 448.99,676.04 446.43,675.39 C442.52,674.41 427.33,675.62 420.60,677.45 C411.94,679.80 399.55,686.25 391.00,692.86 C384.37,697.98 371.01,712.26 371.00,714.23 C371.00,714.64 369.62,717.21 367.94,719.95 C361.58,730.27 358.34,743.80 360.16,752.36 C361.01,756.30 362.28,758.52 365.63,761.88 L 369.00 765.26 C367.11,765.18 365.39,764.99 363.87,764.70 C361.21,764.20 359.90,764.41 359.00,765.51 C357.36,767.48 335.98,767.38 320.50,765.33 ZM 445.38 687.69 C448.00,685.59 448.13,685.19 446.89,683.19 C445.14,680.40 444.92,680.43 441.66,683.84 C439.92,685.65 439.17,687.27 439.58,688.34 C440.44,690.59 441.96,690.42 445.38,687.69 ZM 500.96 668.54 C503.31,665.71 499.16,663.85 494.50,665.64 C493.17,666.15 493.10,666.45 494.17,667.12 C495.24,667.80 495.21,667.99 494.00,668.08 C493.17,668.15 493.62,668.56 495.00,669.00 C498.76,670.20 499.64,670.14 500.96,668.54 ZM 431.30 673.50 C431.19,672.95 430.35,672.34 429.43,672.15 C428.50,671.96 428.04,672.25 428.39,672.82 C428.73,673.37 428.45,674.08 427.76,674.39 C427.07,674.70 427.62,674.85 429.00,674.72 C430.38,674.60 431.41,674.05 431.30,673.50 ZM 360.00 742.00 C360.00,741.45 359.33,741.00 358.50,741.00 C357.67,741.00 357.00,741.45 357.00,742.00 C357.00,742.55 357.67,743.00 358.50,743.00 C359.33,743.00 360.00,742.55 360.00,742.00 ZM 410.79 757.61 C404.89,759.45 398.50,761.24 392.96,762.53 C390.64,763.06 388.36,763.53 386.13,763.91 C393.74,762.34 402.85,759.99 410.79,757.61 ZM 480.54 723.49 C475.39,727.22 471.30,730.00 470.74,730.00 C471.20,730.00 475.46,727.11 480.54,723.49 Z" fill="rgba(71,26,12,1)"/>
<path d="M 664.33 440.60 C668.27,441.21 676.98,441.77 683.68,441.85 C693.56,441.97 696.15,441.70 697.43,440.43 C698.29,439.56 699.00,438.66 699.00,438.43 C699.00,438.19 689.25,438.00 677.33,438.00 C673.65,438.00 670.20,438.03 667.21,438.09 C670.93,437.95 675.13,437.82 679.50,437.74 C702.66,437.28 705.20,437.05 714.00,434.59 C719.22,433.13 724.55,431.67 725.84,431.34 C727.73,430.85 729.31,431.85 734.18,436.62 C759.92,461.84 779.26,499.48 790.38,546.00 C796.65,572.22 799.01,592.05 799.68,624.00 C800.33,655.20 799.55,669.57 794.51,719.50 C790.64,757.76 789.02,778.66 789.01,790.68 C789.00,795.19 788.58,799.97 788.07,801.31 C786.52,805.39 762.30,824.95 742.77,837.89 C741.64,838.64 740.51,839.38 739.37,840.11 L 739.15 834.93 C738.57,820.93 746.12,781.21 760.58,722.17 C773.69,668.66 778.17,638.42 778.25,603.00 C778.32,570.92 775.87,551.32 768.30,523.57 C762.30,501.55 755.01,485.08 743.37,467.19 C738.51,459.72 737.39,458.62 732.30,456.37 C723.40,452.44 717.00,451.62 706.02,453.04 C695.12,454.44 659.36,454.54 653.31,453.18 L 649.26 452.27 L 646.83 458.51 C647.63,456.25 648.35,453.94 648.98,451.58 C650.09,447.43 651.00,443.14 651.00,442.05 C651.00,440.96 651.79,439.66 652.75,439.15 C653.04,438.99 654.37,438.83 656.47,438.66 C656.40,438.69 656.38,438.72 656.41,438.75 C656.82,439.16 660.38,440.00 664.33,440.60 ZM 116.95 612.95 C117.05,613.02 117.15,613.08 117.25,613.13 C119.04,614.09 119.14,613.92 118.50,611.01 L 117.81 607.84 L 124.45 611.37 C133.03,615.91 137.81,616.56 152.48,615.12 C174.30,612.99 184.92,615.37 214.43,629.00 C241.58,641.55 254.04,645.00 272.13,645.00 C286.18,645.00 297.47,642.24 320.96,633.07 C351.24,621.25 374.79,618.32 417.38,621.07 C457.11,623.63 482.02,622.43 504.50,616.89 C536.44,609.01 566.17,593.52 584.66,575.13 C593.38,566.46 598.82,557.93 596.73,556.19 C594.96,554.72 586.92,552.03 584.25,552.01 C583.46,552.01 582.88,551.93 582.54,551.76 C583.30,551.97 585.69,551.70 588.25,551.09 C594.62,549.57 614.00,548.39 614.00,549.53 C614.00,550.90 607.94,561.17 603.69,566.98 C597.56,575.36 583.54,589.44 573.66,597.12 C546.21,618.46 509.96,631.18 468.00,634.20 C455.24,635.12 448.08,635.02 427.50,633.65 C374.81,630.15 356.01,632.34 322.08,645.94 C296.75,656.09 290.95,657.47 274.00,657.44 C252.44,657.39 242.93,654.61 210.00,638.74 C188.73,628.48 181.33,626.60 164.00,627.01 C141.50,627.54 137.07,627.68 133.21,626.25 C132.16,625.87 131.16,625.36 129.85,624.72 C126.74,623.20 123.53,620.95 122.72,619.72 C121.91,618.50 119.60,615.76 117.58,613.63 C117.37,613.41 117.16,613.18 116.95,612.95 ZM 641.18 471.34 C640.20,473.31 639.23,475.16 638.39,476.65 C635.97,480.88 634.00,484.97 634.00,485.74 C634.00,487.93 628.80,494.88 621.80,502.04 C615.35,508.64 601.91,516.78 592.50,519.77 C582.36,523.01 571.81,524.10 562.00,522.94 C546.58,521.11 538.16,518.20 535.27,513.70 C534.85,513.04 532.25,511.44 529.50,510.15 C527.00,508.97 524.52,507.64 522.10,506.17 C533.99,513.26 547.32,517.04 562.50,517.70 C595.27,519.13 625.56,500.57 641.18,471.34 ZM 716.91 656.96 C715.96,659.38 714.95,661.82 714.04,663.85 C711.91,668.61 709.69,674.30 709.10,676.50 C707.56,682.27 694.89,705.06 687.70,715.00 C679.80,725.92 668.70,739.16 666.14,740.72 C665.22,741.28 663.96,743.69 662.21,748.35 C664.97,740.49 668.21,730.86 669.52,726.67 C671.19,721.28 672.76,718.19 674.54,716.79 C679.27,713.07 693.81,696.05 700.68,686.21 C706.96,677.19 713.04,666.14 716.91,656.96 ZM 478.64 436.90 C478.47,436.34 478.24,436.00 478.00,436.00 C477.45,436.00 476.99,434.99 476.98,433.75 C476.98,432.44 476.66,431.97 476.23,432.62 C475.72,433.40 472.91,432.73 467.00,430.41 C457.65,426.74 455.35,426.52 446.50,428.41 C443.20,429.12 440.25,429.32 439.95,428.86 C439.65,428.40 437.66,431.90 435.53,436.62 C435.45,436.79 435.38,436.97 435.30,437.14 C436.52,434.20 437.60,431.17 438.51,428.05 C440.44,421.46 441.10,420.39 444.20,418.77 C446.13,417.77 450.67,416.68 454.29,416.34 C461.78,415.64 469.39,417.58 474.60,421.53 C477.61,423.80 477.73,424.19 478.40,433.96 C478.47,434.95 478.55,435.93 478.64,436.90 ZM 434.06 822.17 C430.01,823.58 426.97,824.75 426.62,825.07 C425.57,826.02 429.84,827.88 444.21,832.74 C456.33,836.84 456.39,837.38 445.21,840.86 C439.30,842.70 439.25,842.70 433.36,840.48 C430.10,839.26 425.20,837.12 422.45,835.73 L 417.52 833.23 C417.68,832.93 417.84,832.63 418.00,832.33 L 421.25 826.16 L 429.88 823.52 C431.00,823.17 432.41,822.72 434.06,822.17 ZM 328.18 691.95 C331.38,687.75 334.21,685.00 335.34,685.00 C337.64,685.00 343.00,688.72 343.00,690.32 C343.00,690.97 340.03,695.46 336.39,700.30 C335.85,701.02 335.29,701.76 334.69,702.51 L 331.84 701.13 C330.17,700.32 328.31,698.58 327.71,697.27 C326.66,694.96 326.28,695.24 315.56,706.30 C315.55,706.31 315.54,706.33 315.52,706.34 C320.53,701.07 325.40,695.59 328.18,691.95 ZM 699.14 398.34 C702.41,409.59 705.11,420.22 704.57,420.76 C704.36,420.98 701.71,421.17 697.77,421.31 L 697.90 414.26 C698.00,409.33 698.54,406.04 699.38,405.19 C700.31,404.26 700.33,402.94 699.14,398.34 ZM 495.16 308.89 L 492.97 310.00 C487.11,312.98 481.55,316.99 476.74,321.61 C476.82,321.53 476.89,321.46 476.97,321.38 C480.99,317.20 482.98,314.38 482.60,313.39 C482.28,312.56 482.70,310.55 483.53,308.94 C484.77,306.54 485.69,306.00 488.53,306.00 C490.95,306.00 492.00,306.45 492.00,307.50 C492.00,308.67 493.78,309.23 495.16,308.89 ZM 616.03 535.93 C616.24,535.66 616.39,535.34 616.52,534.94 C617.48,531.90 627.80,521.75 633.00,518.73 C634.65,517.77 637.97,516.39 641.52,515.14 C637.25,516.92 634.51,518.97 633.85,520.95 C633.65,521.54 632.51,522.21 631.31,522.44 C627.39,523.20 625.20,524.91 620.42,531.00 C618.37,533.61 617.14,535.09 616.03,535.93 ZM 498.23 317.44 C501.92,316.09 505.56,315.08 508.96,314.51 L 513.25 313.78 L 510.26 318.14 C509.00,319.97 507.78,321.93 506.63,323.96 C508.24,320.69 508.31,319.68 507.39,318.91 C506.64,318.28 506.27,317.37 506.57,316.89 C507.42,315.51 503.48,315.83 498.23,317.44 ZM 650.96 512.31 C656.28,510.98 659.22,510.89 667.35,511.25 C669.64,511.35 671.80,511.51 673.85,511.75 C671.65,511.63 668.99,511.58 665.50,511.57 C658.40,511.53 654.48,511.68 650.96,512.31 ZM 709.20 528.86 C719.86,538.99 727.03,552.36 730.42,568.03 C726.85,552.28 719.47,538.81 709.20,528.86 ZM 482.98 804.40 C465.64,811.14 449.57,817.03 439.00,820.50 C438.77,820.57 438.54,820.65 438.31,820.72 C450.14,816.65 468.92,809.80 482.98,804.40 ZM 451.00 844.00 C451.00,844.55 450.55,845.00 450.00,845.00 C449.45,845.00 449.00,844.55 449.00,844.00 C449.00,843.45 449.45,843.00 450.00,843.00 C450.55,843.00 451.00,843.45 451.00,844.00 ZM 732.62 586.83 C732.84,595.22 732.14,604.07 730.48,613.26 C731.90,604.44 732.70,595.03 732.62,586.83 ZM 482.30 455.73 C480.39,449.71 479.08,443.76 479.00,440.16 C479.69,445.58 480.79,450.77 482.30,455.73 ZM 648.04 884.14 C675.74,874.83 702.96,862.31 727.10,847.76 L 730.44 845.75 C704.48,861.66 677.33,874.30 648.04,884.14 ZM 421.33 459.59 C414.47,467.55 406.49,473.29 397.25,476.95 C406.22,473.39 414.45,467.37 421.33,459.59 ZM 447.23 291.25 C455.12,290.94 462.91,291.67 470.14,293.51 C471.50,293.86 472.98,294.32 474.53,294.86 C466.01,292.11 456.68,290.92 447.23,291.25 ZM 488.50 301.22 C490.75,302.50 492.69,303.77 494.05,304.90 L 497.44 307.73 L 496.21 308.36 C496.32,308.26 496.41,308.15 496.48,308.03 C497.05,307.11 493.42,304.15 488.50,301.22 ZM 466.55 334.28 C463.70,339.10 465.12,339.31 470.25,334.36 C473.80,330.93 478.23,327.64 483.04,324.74 C478.19,327.75 473.50,331.22 470.25,334.36 C464.35,340.06 463.82,338.68 466.55,334.28 ZM 595.72 540.82 C600.81,538.61 606.45,537.13 611.01,537.01 C606.96,537.13 601.00,538.65 595.72,540.82 ZM 105.83 590.80 C107.56,596.22 109.96,601.87 112.23,606.15 C109.88,601.96 107.73,596.81 105.83,590.80 ZM 413.57 840.85 C408.84,850.27 405.21,857.88 402.58,863.91 C405.30,857.58 408.99,849.82 413.57,840.85 ZM 501.07 335.41 C498.91,340.69 497.48,345.64 497.21,349.14 C497.42,345.64 498.76,340.90 501.07,335.41 ZM 659.76 421.30 C656.26,421.10 654.54,420.92 653.64,420.42 C654.54,420.91 656.26,421.08 659.76,421.26 C661.70,421.36 665.40,421.47 669.71,421.58 C665.73,421.53 662.22,421.44 659.76,421.30 ZM 658.18 760.19 C655.65,768.02 653.34,775.50 651.24,782.75 C653.42,775.14 655.75,767.58 658.18,760.19 ZM 689.49 369.99 C690.53,372.46 691.52,374.92 692.29,377.00 C692.71,378.11 693.15,379.35 693.61,380.69 C692.30,377.02 690.90,373.39 689.49,369.99 ZM 315.05 723.48 C312.28,726.04 309.59,728.38 307.13,730.32 C309.73,728.20 312.42,725.88 315.05,723.48 ZM 582.22 551.49 C581.93,551.00 582.47,550.12 583.89,548.64 C582.72,549.90 582.04,550.97 582.22,551.49 ZM 723.86 637.85 C723.76,638.08 723.66,638.30 723.56,638.50 C723.25,639.12 722.84,640.14 722.37,641.37 C722.84,640.12 723.25,639.10 723.55,638.50 C723.65,638.29 723.76,638.07 723.86,637.85 ZM 585.17 547.38 C585.20,547.35 585.22,547.33 585.25,547.30 C585.83,546.75 586.47,546.21 587.17,545.68 C586.46,546.24 585.78,546.82 585.17,547.38 ZM 300.67 720.63 C300.82,720.51 300.99,720.38 301.16,720.24 C300.97,720.39 300.81,720.52 300.67,720.63 L 296.84 723.55 L 300.67 720.63 ZM 300.40 733.32 C300.36,733.19 300.30,733.04 300.24,732.86 C300.31,733.04 300.36,733.20 300.40,733.33 C300.41,733.36 300.42,733.39 300.43,733.42 C300.42,733.39 300.41,733.35 300.40,733.32 Z" fill="rgba(90,126,52,1)"/>
<path d="M 339.68 438.39 C337.69,440.37 335.43,442.00 334.65,442.00 C333.24,442.00 332.04,439.13 332.01,435.68 C332.00,433.72 341.00,419.09 342.25,419.03 C342.66,419.01 343.10,421.14 343.21,423.75 C343.65,433.71 343.43,434.63 339.68,438.39 Z" fill="rgba(123,127,111,1)"/>
<path d="M 631.85 888.52 C631.02,887.68 633.85,862.08 636.51,846.41 C641.42,817.47 648.26,790.55 659.14,757.22 C662.61,746.62 664.75,741.56 666.14,740.72 C668.70,739.16 679.80,725.92 687.70,715.00 C694.89,705.06 707.56,682.27 709.10,676.50 C709.69,674.30 711.91,668.61 714.04,663.85 C716.17,659.09 718.85,652.12 720.00,648.35 C721.15,644.58 722.75,640.15 723.56,638.50 C725.61,634.30 728.65,623.27 730.41,613.65 C737.85,573.08 726.62,539.20 699.84,521.39 C689.57,514.57 680.87,511.85 667.35,511.25 C657.37,510.81 655.21,511.04 646.85,513.43 C641.71,514.91 635.47,517.29 633.00,518.73 C627.80,521.75 617.48,531.90 616.52,534.94 C615.99,536.59 615.03,537.00 611.61,537.00 C603.32,537.00 591.05,541.80 585.25,547.30 C581.42,550.95 581.19,551.99 584.25,552.01 C586.92,552.03 594.96,554.72 596.73,556.19 C598.82,557.93 593.38,566.46 584.66,575.13 C566.17,593.52 536.44,609.01 504.50,616.89 C482.02,622.43 457.11,623.63 417.38,621.07 C374.79,618.32 351.24,621.25 320.96,633.07 C297.47,642.24 286.18,645.00 272.13,645.00 C254.04,645.00 241.58,641.55 214.43,629.00 C184.92,615.37 174.30,612.99 152.48,615.12 C137.81,616.56 133.03,615.91 124.45,611.37 L 117.81 607.84 L 118.50 611.01 C118.94,613.00 119.03,613.71 118.47,613.65 C118.98,613.39 118.51,611.62 117.00,608.51 C110.90,595.90 108.55,574.05 111.42,556.62 C113.08,546.55 121.29,520.27 125.13,512.75 C126.30,510.46 129.78,506.08 132.87,503.00 C146.99,488.97 167.27,487.34 184.36,498.84 C188.16,501.40 188.73,501.52 191.25,500.26 C191.87,499.95 192.45,499.56 192.91,499.17 C192.17,500.08 191.12,501.21 189.95,502.31 C185.72,506.29 182.01,511.62 182.00,513.74 C182.00,514.44 184.46,513.40 187.67,511.35 C195.71,506.20 204.23,502.78 213.97,500.87 C213.23,501.04 212.46,501.23 211.66,501.43 C195.75,505.47 184.07,512.09 180.42,519.15 C179.08,521.75 179.10,522.00 180.66,522.00 C181.60,522.00 187.57,520.23 193.93,518.07 C219.77,509.30 234.81,507.36 253.37,510.42 C276.27,514.19 296.77,527.57 305.66,544.55 C308.35,549.68 309.98,550.28 309.36,546.83 C310.15,549.49 310.85,552.31 311.47,555.29 C312.33,559.36 313.54,557.89 315.00,551.00 C316.58,543.54 315.83,534.29 313.02,526.79 C310.38,519.74 303.76,511.10 296.77,504.86 C297.32,504.86 297.98,504.41 299.29,503.56 C302.80,501.27 321.53,496.22 333.00,494.47 C347.05,492.32 370.49,492.32 384.50,494.46 C395.68,496.17 408.85,499.31 412.08,501.05 C413.07,501.57 414.44,502.00 415.15,502.00 C417.19,502.00 414.72,500.26 410.11,497.96 C411.36,498.54 412.65,499.16 413.97,499.80 C418.63,502.05 422.62,503.72 422.82,503.51 C423.61,502.72 417.65,495.96 412.26,491.52 C409.55,489.29 405.09,486.19 401.68,484.15 C403.78,485.11 404.79,485.10 405.17,484.25 C405.35,483.84 408.88,480.93 413.00,477.80 C421.15,471.60 430.07,463.00 428.34,463.00 C425.33,463.00 415.16,467.05 409.13,470.62 C419.93,463.19 428.62,451.97 435.53,436.62 C437.66,431.90 439.65,428.40 439.95,428.86 C440.25,429.32 443.20,429.12 446.50,428.41 C455.35,426.52 457.65,426.74 467.00,430.41 C472.91,432.73 475.72,433.40 476.23,432.62 C476.66,431.97 476.98,432.44 476.98,433.75 C476.99,434.99 477.45,436.00 478.00,436.00 C478.55,436.00 479.00,437.73 479.00,439.84 C479.00,445.56 482.43,457.90 486.42,466.54 C494.95,485.00 511.38,501.64 529.50,510.15 C532.25,511.44 534.85,513.04 535.27,513.70 C538.16,518.20 546.58,521.11 562.00,522.94 C571.81,524.10 582.36,523.01 592.50,519.77 C601.91,516.78 615.35,508.64 621.80,502.04 C628.80,494.88 634.00,487.93 634.00,485.74 C634.00,484.97 635.97,480.88 638.39,476.65 C640.80,472.41 644.23,465.20 646.01,460.61 L 649.26 452.27 L 653.31 453.18 C659.36,454.54 695.12,454.44 706.02,453.04 C717.00,451.62 723.40,452.44 732.30,456.37 C737.39,458.62 738.51,459.72 743.37,467.19 C755.01,485.08 762.30,501.55 768.30,523.57 C775.87,551.32 778.32,570.92 778.25,603.00 C778.17,638.42 773.69,668.66 760.58,722.17 C746.12,781.21 738.57,820.93 739.15,834.93 L 739.38 840.36 L 727.10 847.76 C702.96,862.31 675.74,874.83 648.04,884.14 C632.94,889.21 632.63,889.30 631.85,888.52 ZM 659.76 421.26 C653.72,420.95 652.97,420.68 652.62,418.70 C648.77,396.92 645.61,387.36 638.83,376.86 C627.58,359.43 611.40,347.26 590.95,340.84 C584.37,338.77 581.58,338.51 567.00,338.54 C551.63,338.58 549.92,338.78 542.00,341.41 C525.16,347.01 514.30,353.76 502.83,365.78 C493.65,375.40 486.94,386.45 483.27,398.00 C481.78,402.67 480.51,406.62 480.44,406.76 C480.37,406.91 477.65,405.83 474.40,404.36 C467.61,401.29 454.15,400.04 447.54,401.86 C445.38,402.46 443.44,402.78 443.24,402.57 C443.03,402.36 442.47,398.21 441.99,393.35 C438.83,361.34 420.42,335.81 394.29,326.67 C394.73,326.79 395.03,326.86 395.13,326.88 C395.48,326.95 395.98,326.19 396.24,325.19 C396.99,322.34 408.64,314.11 418.80,309.26 C435.85,301.13 456.52,298.89 476.50,303.00 C491.06,306.00 495.20,305.58 489.23,301.66 C493.77,304.44 497.02,307.16 496.48,308.03 C495.53,309.57 492.00,309.15 492.00,307.50 C492.00,306.45 490.95,306.00 488.53,306.00 C485.69,306.00 484.77,306.54 483.53,308.94 C482.70,310.55 482.28,312.56 482.60,313.39 C482.98,314.38 480.99,317.20 476.97,321.38 C466.35,332.42 460.51,343.32 469.11,335.44 C469.07,335.48 469.03,335.51 469.00,335.55 C466.23,338.46 465.27,339.99 466.50,339.52 C476.47,335.66 485.03,333.92 492.86,334.17 C501.07,334.42 501.25,334.37 502.65,331.69 C504.17,328.79 503.74,326.84 501.72,327.46 C498.29,328.52 482.00,328.98 482.00,328.03 C482.00,327.45 484.25,325.60 487.00,323.90 C493.03,320.19 493.54,319.17 487.94,322.03 C486.37,322.83 484.83,323.68 483.33,324.56 C487.95,321.72 492.69,319.31 496.48,318.01 C502.57,315.91 507.51,315.36 506.57,316.89 C506.27,317.37 506.64,318.28 507.39,318.91 C508.51,319.84 508.16,321.14 505.38,326.38 C499.86,336.78 496.87,345.75 497.20,350.90 L 497.50 355.50 L 501.84 347.44 C504.64,342.25 507.90,337.38 511.57,332.87 C505.92,340.04 498.04,353.35 498.01,355.88 C498.01,356.65 503.12,352.31 509.38,346.25 C527.04,329.13 542.12,319.24 559.18,313.55 C585.29,304.85 613.69,306.63 638.87,318.55 C649.56,323.61 661.59,331.42 667.63,337.22 C671.39,340.83 673.11,340.99 672.02,338.91 C676.24,344.77 681.82,353.68 684.96,359.95 C689.56,369.12 694.99,383.48 698.27,395.18 C700.31,402.40 700.49,404.08 699.38,405.19 C698.54,406.04 698.00,409.33 697.90,414.26 L 697.75 422.00 L 682.13 421.80 C673.53,421.70 663.47,421.45 659.76,421.26 ZM 487.50 841.01 C491.90,841.47 507.42,841.70 522.00,841.52 C548.98,841.17 562.44,839.72 587.00,834.52 C602.54,831.23 627.54,822.87 629.68,820.26 C629.87,820.02 630.08,819.63 630.29,819.14 C629.72,821.67 629.27,823.83 628.98,825.50 C628.83,826.37 628.68,827.23 628.54,828.07 C627.68,827.98 624.76,829.16 618.75,831.94 C599.58,840.80 577.66,846.68 549.00,850.67 C531.56,853.10 494.33,853.07 476.66,850.62 C462.66,848.69 449.34,845.70 438.25,842.08 C440.17,842.42 441.59,841.98 445.21,840.86 C455.31,837.71 456.23,836.97 447.38,833.84 C449.19,834.40 450.78,834.83 451.96,835.08 C462.98,837.36 480.14,840.22 487.50,841.01 ZM 233.09 564.43 C235.44,562.46 239.15,559.94 241.35,558.82 C245.10,556.91 245.53,556.88 248.70,558.39 C255.21,561.50 261.18,559.67 265.07,553.39 C269.16,546.77 267.20,536.78 261.29,534.09 C257.90,532.54 248.55,532.74 244.49,534.44 C239.50,536.53 231.19,544.69 228.34,550.31 C225.36,556.19 224.18,564.31 225.99,566.48 C227.75,568.61 228.26,568.46 233.09,564.43 ZM 143.41 553.09 C147.86,548.19 149.51,530.80 146.41,521.69 C143.28,512.50 135.53,509.32 129.92,514.92 C127.43,517.42 127.00,518.62 127.00,523.17 C126.99,527.43 128.02,530.80 132.14,540.00 C137.02,550.90 139.44,555.00 141.00,555.00 C141.38,555.00 142.47,554.14 143.41,553.09 ZM 315.56 706.30 C326.28,695.24 326.66,694.96 327.71,697.27 C328.31,698.58 330.17,700.32 331.84,701.13 L 334.89 702.60 L 328.69 709.71 C322.87,716.40 314.32,724.53 306.54,730.79 C312.72,725.75 320.92,718.09 321.03,717.22 C321.08,716.82 322.07,715.49 323.23,714.25 C324.40,713.01 324.82,712.00 324.17,712.00 C323.40,712.00 323.00,709.88 323.00,705.82 L 323.00 699.63 L 313.75 708.60 C310.38,711.87 306.67,715.33 303.93,717.77 C307.00,714.92 311.42,710.57 315.56,706.30 ZM 664.33 440.60 C660.38,440.00 656.82,439.16 656.41,438.75 C656.00,438.34 665.42,438.00 677.33,438.00 C689.25,438.00 699.00,438.19 699.00,438.43 C699.00,438.66 698.29,439.56 697.43,440.43 C696.15,441.70 693.56,441.97 683.68,441.85 C676.98,441.77 668.27,441.21 664.33,440.60 ZM 438.70 830.85 C428.74,827.37 425.71,825.88 426.62,825.07 C427.10,824.63 432.67,822.57 439.00,820.50 C439.32,820.39 439.65,820.28 439.99,820.17 C432.71,822.65 426.90,825.04 426.94,825.55 C427.00,826.18 432.60,828.59 438.70,830.85 ZM 451.00 844.00 C451.00,843.45 450.55,843.00 450.00,843.00 C449.45,843.00 449.00,843.45 449.00,844.00 C449.00,844.55 449.45,845.00 450.00,845.00 C450.55,845.00 451.00,844.55 451.00,844.00 ZM 656.55 732.93 C655.86,734.03 652.49,743.33 649.28,752.73 C652.58,742.62 655.37,734.84 656.55,732.93 ZM 624.48 852.47 C625.83,843.19 627.24,834.53 628.07,830.75 C626.53,839.68 625.39,846.58 624.48,852.47 ZM 295.82 491.55 C301.56,489.69 308.14,487.71 312.50,486.62 C333.50,481.39 361.44,481.85 383.54,487.75 C361.64,481.93 333.48,481.39 312.50,486.62 C308.29,487.67 301.64,489.67 295.82,491.55 ZM 406.15 302.90 C425.70,291.46 450.65,288.26 471.44,293.94 C450.68,288.35 425.72,291.44 406.15,302.90 ZM 539.47 309.44 C555.13,300.61 573.24,295.91 591.77,296.42 C587.29,296.31 582.79,296.49 578.31,296.97 C564.62,298.45 551.32,302.79 539.47,309.44 ZM 449.86 816.77 C461.24,812.74 475.63,807.33 490.50,801.46 C495.04,799.67 507.18,795.36 521.20,790.53 C507.19,795.36 495.04,799.67 490.50,801.47 C474.53,807.77 461.69,812.61 449.86,816.77 ZM 619.69 300.94 C628.36,303.57 636.47,307.32 644.13,312.22 C647.61,314.45 652.47,318.28 656.63,321.88 C652.28,318.18 647.24,314.21 644.13,312.22 C636.56,307.38 628.31,303.59 619.69,300.94 ZM 667.13 333.09 C667.74,333.52 668.68,334.55 669.83,336.01 C669.57,335.72 669.29,335.42 668.99,335.11 C668.32,334.42 667.69,333.73 667.13,333.09 ZM 187.94 490.65 C191.29,493.56 194.00,496.42 194.00,497.40 C194.00,497.42 194.00,497.44 193.99,497.47 C193.81,496.32 191.18,493.50 187.94,490.65 ZM 287.14 498.14 C285.40,497.29 284.00,496.33 284.00,495.98 C284.00,495.97 284.00,495.96 284.01,495.95 C284.11,496.26 285.40,497.15 287.14,498.14 ZM 116.11 612.11 C116.53,612.53 116.90,612.86 117.22,613.11 C116.72,612.84 116.13,612.25 115.48,611.42 C115.70,611.68 115.91,611.91 116.11,612.11 ZM 294.07 502.60 C293.02,501.77 291.97,501.01 290.94,500.32 C292.19,501.12 293.33,501.95 294.07,502.60 ZM 620.33 885.50 C620.70,882.80 621.10,879.50 621.45,876.00 C621.56,874.99 621.67,873.91 621.80,872.78 C621.71,873.67 621.61,874.58 621.52,875.50 C621.14,879.20 620.72,882.68 620.33,885.50 ZM 635.42 798.74 C634.64,801.64 633.90,804.46 633.22,807.13 C633.83,804.66 634.58,801.83 635.42,798.74 ZM 384.00 322.47 L 384.00 322.46 C384.00,321.33 387.80,317.42 392.52,313.27 C387.82,317.41 384.03,321.32 384.00,322.47 ZM 394.00 479.01 C394.05,478.63 395.11,477.90 396.51,477.27 C395.08,477.95 394.05,478.65 394.00,479.01 ZM 427.52 838.08 C425.73,837.32 424.03,836.53 422.45,835.73 C423.78,836.40 425.61,837.25 427.52,838.08 ZM 106.21 591.97 C105.93,591.13 105.67,590.29 105.42,589.46 C105.23,588.83 105.05,588.23 104.89,587.65 C105.04,588.18 105.20,588.73 105.37,589.30 C105.64,590.19 105.92,591.08 106.21,591.97 ZM 300.40 733.33 C300.30,733.03 300.15,732.57 299.96,732.03 C300.15,732.58 300.31,733.05 300.41,733.36 C300.65,734.07 300.88,734.44 301.39,734.38 C300.87,734.45 300.64,734.07 300.40,733.33 ZM 617.74 893.05 C618.41,892.78 618.85,892.53 619.06,892.32 C619.17,892.21 619.32,891.65 619.51,890.74 C619.33,891.65 619.17,892.21 619.06,892.32 C618.86,892.53 618.41,892.78 617.74,893.05 Z" fill="rgba(119,153,70,1)"/>
<path d="M 498.01 355.88 C498.04,353.25 506.52,339.02 512.20,332.08 C528.06,312.74 552.50,299.75 578.31,296.97 C601.41,294.49 624.93,299.94 644.13,312.22 C650.51,316.30 665.00,328.69 665.00,330.07 C665.00,330.58 666.80,332.85 668.99,335.11 C674.21,340.49 673.00,342.37 667.63,337.22 C661.59,331.42 649.56,323.61 638.87,318.55 C613.69,306.63 585.29,304.85 559.18,313.55 C542.12,319.24 527.04,329.13 509.38,346.25 C503.12,352.31 498.01,356.65 498.01,355.88 ZM 116.11 612.11 C112.98,608.98 108.31,599.07 105.37,589.30 C103.08,581.69 102.71,578.60 102.63,566.50 C102.54,552.00 104.11,541.90 108.01,532.00 C108.99,529.53 110.32,524.88 110.98,521.67 C112.98,511.95 119.98,499.29 127.23,492.34 C134.29,485.56 139.23,482.70 147.68,480.50 C157.90,477.83 169.04,479.00 178.42,483.73 C183.80,486.44 194.00,495.51 194.00,497.59 C194.00,498.31 192.76,499.51 191.25,500.26 C188.73,501.52 188.16,501.40 184.36,498.84 C167.27,487.34 146.99,488.97 132.87,503.00 C129.78,506.08 126.30,510.46 125.13,512.75 C121.29,520.27 113.08,546.55 111.42,556.62 C108.55,574.05 110.90,595.90 117.00,608.51 C119.52,613.70 119.16,615.16 116.11,612.11 ZM 305.66 544.55 C296.77,527.57 276.27,514.19 253.37,510.42 C234.81,507.36 219.77,509.30 193.93,518.07 C187.57,520.23 181.60,522.00 180.66,522.00 C179.10,522.00 179.08,521.75 180.42,519.15 C184.07,512.09 195.75,505.47 211.66,501.43 C219.53,499.44 223.70,499.00 234.88,499.02 C255.60,499.04 270.55,502.95 284.31,511.94 C296.13,519.67 303.76,529.62 308.42,543.41 C310.75,550.29 309.03,550.99 305.66,544.55 ZM 294.60 503.11 C293.66,502.07 290.89,500.16 288.44,498.86 C286.00,497.56 284.00,496.24 284.00,495.91 C284.00,495.23 303.63,488.83 312.50,486.62 C335.38,480.92 366.79,482.08 389.31,489.46 C402.90,493.91 419.56,502.00 415.15,502.00 C414.44,502.00 413.07,501.57 412.08,501.05 C408.85,499.31 395.68,496.17 384.50,494.46 C370.49,492.32 347.05,492.32 333.00,494.47 C321.53,496.22 302.80,501.27 299.29,503.56 C297.86,504.48 297.21,504.94 296.63,504.85 C296.08,504.78 295.60,504.21 294.60,503.11 ZM 389.25 325.24 C386.36,324.40 384.00,323.16 384.00,322.48 C384.00,320.25 398.65,307.29 406.14,302.91 C430.85,288.43 464.17,287.30 486.75,300.16 C496.02,305.44 492.75,306.34 476.50,303.00 C456.52,298.89 435.85,301.13 418.80,309.26 C408.64,314.11 396.99,322.34 396.24,325.19 C395.98,326.19 395.48,326.95 395.13,326.88 C394.79,326.82 392.14,326.08 389.25,325.24 ZM 364.00 469.46 C360.42,468.73 353.15,468.10 347.84,468.06 L 338.18 468.00 L 333.34 464.12 C326.67,458.78 320.86,452.13 316.44,444.96 L 320.76 440.02 C323.44,436.96 327.16,434.00 329.70,432.91 C332.36,431.78 334.02,430.47 336.00,427.72 C333.86,431.29 332.01,434.79 332.01,435.68 C332.04,439.13 333.24,442.00 334.65,442.00 C335.43,442.00 337.69,440.37 339.68,438.39 C343.27,434.80 343.63,433.80 343.26,424.99 C343.29,425.28 343.32,425.57 343.35,425.87 C344.72,440.63 351.81,460.89 357.70,466.87 C358.58,467.76 361.82,469.01 364.90,469.64 C367.98,470.27 370.99,470.83 371.59,470.89 C372.37,470.97 375.38,470.08 378.66,468.93 C375.39,470.08 372.37,470.97 371.59,470.90 C370.99,470.85 367.58,470.20 364.00,469.46 ZM 535.47 495.04 C525.35,489.80 515.79,482.16 509.54,473.85 C502.12,463.97 497.83,454.80 495.92,444.02 C497.26,450.97 499.10,456.13 500.31,455.73 C500.96,455.51 503.25,452.79 505.39,449.67 C509.66,443.44 512.00,442.41 512.00,446.77 C512.00,449.93 515.41,462.79 517.64,468.00 C522.72,479.90 530.27,491.25 535.47,495.04 ZM 300.41 733.36 C300.08,732.34 299.14,729.71 298.32,727.53 L 296.84 723.55 L 300.67 720.56 C302.78,718.92 308.66,713.54 313.75,708.60 L 323.00 699.63 L 323.00 705.82 C323.00,709.88 323.40,712.00 324.17,712.00 C324.82,712.00 324.40,713.01 323.23,714.25 C322.07,715.49 321.08,716.82 321.03,717.22 C320.92,718.13 312.01,726.42 305.76,731.42 C301.51,734.83 300.96,735.03 300.41,733.36 ZM 398.25 482.33 C395.91,480.96 394.00,479.48 394.00,479.03 C394.00,478.58 395.76,477.51 397.91,476.65 C400.06,475.79 404.87,473.22 408.59,470.94 C414.54,467.30 425.24,463.00 428.34,463.00 C430.07,463.00 421.15,471.60 413.00,477.80 C408.88,480.93 405.35,483.84 405.17,484.25 C404.62,485.47 402.76,484.95 398.25,482.33 ZM 469.00 335.55 C473.52,330.79 480.41,325.87 487.94,322.03 C493.54,319.17 493.03,320.19 487.00,323.90 C484.25,325.60 482.00,327.45 482.00,328.03 C482.00,328.98 498.29,328.52 501.72,327.46 C503.74,326.84 504.17,328.79 502.65,331.69 C501.25,334.37 501.07,334.42 492.86,334.17 C485.03,333.92 476.47,335.66 466.50,339.52 C465.27,339.99 466.23,338.46 469.00,335.55 ZM 507.73 385.17 C509.72,382.26 511.88,379.54 514.22,377.00 C513.97,377.63 514.19,378.00 515.00,378.00 C515.55,378.00 516.01,379.01 516.03,380.25 C516.05,381.49 516.88,384.87 517.88,387.76 C519.43,392.24 519.50,393.29 518.35,394.76 C517.10,396.36 516.71,396.18 513.50,392.50 C511.59,390.30 509.76,387.71 509.44,386.75 C509.12,385.79 508.50,385.00 508.04,385.00 C507.96,385.00 507.86,385.06 507.73,385.17 ZM 378.60 339.35 C385.22,340.19 391.00,341.77 391.00,343.07 C391.00,343.58 391.57,344.00 392.26,344.00 C393.37,344.00 395.16,344.74 397.26,345.99 C397.23,345.97 397.21,345.96 397.18,345.94 C392.56,343.57 391.65,343.66 380.57,347.59 C378.41,348.35 376.43,348.76 376.17,348.50 C375.90,348.24 376.43,346.14 377.33,343.83 C378.15,341.77 378.67,339.88 378.60,339.35 ZM 629.06 396.93 C629.38,398.21 629.61,399.47 629.73,400.70 C630.13,404.55 630.97,406.70 632.78,408.51 C635.00,410.72 635.33,412.06 635.77,420.40 C635.83,421.58 635.87,422.77 635.89,423.95 C635.69,422.19 635.08,422.19 633.25,422.31 L 630.50 422.50 L 629.94 409.00 C629.70,403.02 629.52,399.59 629.06,396.93 ZM 312.35 437.31 C310.99,434.31 309.88,431.27 309.07,428.25 C308.38,425.69 307.76,422.28 307.30,418.79 C308.34,425.07 310.15,431.83 312.35,437.31 ZM 524.46 367.92 C531.95,362.50 540.63,358.51 550.41,356.02 C555.88,354.62 561.69,354.00 567.60,354.11 C556.44,354.01 545.26,356.62 534.50,361.95 C531.15,363.60 527.62,365.74 524.46,367.92 ZM 631.25 453.32 C629.29,458.92 626.72,464.16 623.59,468.86 C622.47,470.54 621.11,472.34 619.59,474.16 C624.51,467.87 628.46,460.82 631.25,453.32 ZM 604.80 488.66 C602.09,490.83 599.49,492.62 597.28,493.80 C592.72,496.21 589.12,497.88 585.60,499.03 C592.55,496.52 599.00,492.99 604.80,488.66 ZM 344.39 344.04 C351.78,340.46 359.76,338.82 369.20,338.77 C364.01,338.99 358.02,339.58 355.00,340.35 C351.05,341.37 347.60,342.55 344.39,344.04 ZM 599.00 361.77 C605.78,365.10 612.26,370.36 617.51,376.37 C612.04,370.34 605.21,364.82 599.00,361.77 ZM 408.45 354.97 C414.68,361.41 420.13,370.30 422.89,378.59 C420.16,370.39 414.65,361.62 408.45,354.97 ZM 499.02 401.94 C500.11,399.03 501.45,396.10 503.06,393.01 C503.40,392.35 503.75,391.70 504.10,391.06 C502.36,394.38 500.41,398.51 499.02,401.94 ZM 553.00 501.37 C549.56,500.71 545.99,499.63 542.42,498.22 C546.12,499.58 550.31,500.85 553.00,501.37 ZM 495.11 419.41 C495.32,417.08 495.62,414.86 496.02,412.71 C495.65,414.84 495.35,417.10 495.11,419.41 ZM 342.18 419.05 C341.94,419.14 341.52,419.57 340.99,420.23 C341.56,419.47 341.97,419.01 342.11,419.01 C342.13,419.01 342.15,419.02 342.18,419.05 ZM 307.00 402.08 C307.47,400.31 308.19,400.01 310.29,399.81 C311.14,399.72 311.76,399.63 312.26,399.38 C311.76,399.63 311.15,399.72 310.31,399.80 C308.21,400.01 307.48,400.34 307.00,402.08 Z" fill="rgba(164,185,113,1)"/>
<path d="M 311.20 381.58 C311.19,381.93 311.26,382.22 311.41,382.47 C312.28,383.98 315.93,383.88 323.87,383.93 L 336.75 384.02 L 337.96 380.76 C339.70,376.12 340.27,374.31 341.48,373.63 C342.36,373.14 343.59,373.26 345.85,373.32 C348.59,373.40 350.62,373.81 350.36,374.23 C350.10,374.65 350.41,375.00 351.05,375.00 C352.60,375.00 351.90,378.43 348.20,389.00 C342.73,404.58 341.70,419.90 345.06,436.43 C344.26,432.78 343.66,429.19 343.35,425.87 C343.00,422.09 342.44,419.00 342.11,419.01 C341.77,419.02 339.83,421.73 337.78,425.03 C334.87,429.73 333.10,431.46 329.70,432.91 C328.19,433.56 326.27,434.87 324.39,436.46 L 329.26 431.50 L 329.49 422.00 C329.61,416.77 330.06,409.69 330.49,406.25 L 331.26 400.00 L 308.98 400.00 C309.35,399.91 309.79,399.86 310.31,399.80 C313.21,399.52 313.47,399.13 315.13,392.50 C316.56,386.81 317.12,384.91 316.46,384.29 C316.08,383.93 315.28,384.00 314.00,384.00 C311.82,384.00 310.86,383.54 311.20,381.58 ZM 378.61 339.39 C378.36,339.10 377.78,339.00 376.78,339.00 C374.84,339.00 373.91,339.96 372.22,343.75 C371.06,346.36 369.79,349.62 369.41,351.00 C369.02,352.38 366.97,355.52 364.85,358.00 C362.73,360.48 359.51,364.52 357.70,367.00 C354.01,372.04 352.08,372.61 350.28,369.21 C346.84,362.68 346.97,360.52 351.22,353.32 C356.90,343.69 358.41,340.00 356.67,340.00 C356.66,340.00 356.65,340.00 356.65,340.00 C363.42,338.75 377.50,338.17 378.55,339.22 C378.58,339.25 378.60,339.31 378.61,339.39 ZM 322.36 361.82 C319.17,365.67 316.42,369.69 314.65,373.27 C314.35,373.87 314.07,374.43 313.81,374.96 C314.09,374.37 314.40,373.74 314.72,373.07 C316.76,368.93 318.89,365.72 322.36,361.82 ZM 350.34 341.71 C347.10,342.91 343.31,344.59 340.22,346.24 C343.37,344.38 346.65,342.92 350.34,341.71 ZM 319.63 441.32 L 316.18 445.26 L 316.03 444.98 L 319.63 441.32 ZM 351.13 455.62 C353.34,460.64 355.77,464.91 357.70,466.87 C355.56,464.69 353.25,460.62 351.13,455.62 ZM 308.26 423.75 C306.60,416.24 305.86,408.75 306.60,404.11 C306.60,404.10 306.60,404.09 306.60,404.08 C305.87,408.73 306.61,416.24 308.26,423.75 ZM 376.13 347.79 C376.27,346.80 376.88,344.89 377.94,342.16 C377.77,342.69 377.56,343.25 377.33,343.83 C376.70,345.43 376.26,346.94 376.13,347.79 ZM 380.57 347.59 C378.41,348.35 376.45,348.78 376.21,348.54 C376.20,348.53 376.19,348.53 376.19,348.52 C376.52,348.74 378.46,348.34 380.57,347.59 Z" fill="rgba(177,181,169,1)"/>
<path d="M 361.32 735.51 C362.73,730.17 365.00,724.72 367.94,719.95 C369.62,717.21 371.00,714.64 371.00,714.23 C371.01,712.26 384.37,697.98 391.00,692.86 C399.55,686.25 411.94,679.80 420.60,677.45 C427.33,675.62 442.52,674.41 446.43,675.39 C448.99,676.04 448.82,676.29 440.25,684.78 C434.52,690.46 430.30,695.68 428.16,699.75 C426.36,703.19 425.26,706.00 425.73,706.00 C426.19,706.00 429.03,703.47 432.03,700.38 C445.52,686.52 461.66,676.49 477.00,672.43 C486.71,669.86 503.48,670.12 512.50,672.97 C519.55,675.19 528.00,679.47 528.00,680.81 C528.00,681.91 504.37,704.97 496.75,711.29 C495.97,711.95 495.01,712.71 493.92,713.56 C494.00,713.48 494.07,713.42 494.11,713.37 C494.75,712.60 495.33,711.18 495.41,710.23 C495.48,709.28 496.37,706.38 497.39,703.79 C498.41,701.20 498.98,698.40 498.67,697.58 C497.57,694.72 488.19,690.95 479.31,689.81 C469.01,688.48 458.19,689.81 448.08,693.66 C444.46,695.04 439.70,696.84 437.50,697.65 C435.30,698.46 431.46,701.12 428.97,703.56 C426.47,706.00 423.88,708.00 423.22,708.00 C421.50,708.00 421.71,705.30 423.68,701.97 C425.08,699.59 425.14,698.87 424.03,697.54 C422.94,696.22 421.37,696.05 415.10,696.58 C404.42,697.47 392.84,701.22 383.63,706.76 C379.31,709.37 374.89,711.95 373.81,712.50 C371.22,713.82 365.34,723.60 362.83,730.74 C362.25,732.40 361.74,733.98 361.32,735.51 ZM 785.02 323.79 C789.04,327.66 789.81,327.84 799.22,327.19 C801.44,327.03 803.99,325.46 806.13,323.19 C804.25,325.38 802.20,327.00 800.89,327.00 C800.32,327.00 801.39,328.46 803.25,330.25 C805.84,332.73 807.01,335.04 808.90,341.73 C807.55,337.18 806.36,333.99 805.55,333.15 C804.48,332.05 803.80,332.04 801.87,333.07 C798.71,334.76 788.55,334.70 786.48,332.98 C784.49,331.33 783.95,332.02 780.94,339.95 C777.92,347.93 769.46,382.70 768.75,389.86 C769.41,382.89 776.84,352.05 780.70,340.50 C782.17,336.10 784.49,331.27 785.85,329.77 L 788.34 327.03 L 784.71 323.50 C780.08,319.01 778.60,313.39 779.58,308.41 C778.64,313.46 780.23,319.18 785.02,323.79 ZM 819.43 397.23 C820.33,394.38 817.61,378.42 814.25,363.11 C817.96,379.68 820.32,394.42 819.43,397.23 ZM 365.63 761.88 C362.34,758.58 361.05,756.39 360.21,752.58 C361.11,756.12 362.92,759.16 365.63,761.88 ZM 481.34 722.92 C476.33,726.51 471.94,729.51 470.92,729.95 C471.89,729.50 476.48,726.36 481.34,722.92 ZM 470.75 730.00 C470.75,730.00 470.74,730.00 470.74,730.00 C470.48,730.00 468.54,727.05 466.43,723.44 C468.52,727.02 470.45,729.95 470.75,730.00 Z" fill="rgba(191,67,54,1)"/>
<path d="M 335.00 820.96 C311.29,818.03 291.16,811.36 277.31,801.86 C268.45,795.78 261.96,787.78 258.39,779.52 C258.79,780.43 259.24,781.33 259.72,782.23 C261.80,786.10 264.63,789.99 266.00,790.88 L 268.50 792.50 L 266.69 789.69 C263.75,785.14 265.15,784.74 270.50,788.62 C284.91,799.07 308.34,806.71 334.00,809.32 C341.95,810.13 362.47,809.93 372.14,808.95 C402.13,805.91 430.01,798.34 473.93,781.32 C498.27,771.89 511.05,767.16 541.50,756.34 C582.96,741.61 606.32,731.27 630.00,717.16 C665.40,696.07 690.46,670.77 708.15,638.25 C712.11,630.96 715.66,625.00 716.05,625.00 C716.56,625.00 717.41,622.62 718.30,618.87 C717.93,620.81 717.51,622.91 717.04,625.21 C715.24,633.97 709.62,649.41 704.82,658.75 C683.86,699.54 646.72,729.31 587.00,753.20 C580.12,755.95 559.42,763.29 541.00,769.51 C522.58,775.73 494.23,785.87 478.00,792.04 C433.35,809.01 409.70,816.05 385.86,819.48 C372.57,821.38 344.94,822.19 335.00,820.96 ZM 457.84 836.24 C455.76,835.85 453.77,835.45 451.96,835.08 C445.57,833.76 427.04,826.70 426.94,825.55 C426.90,825.03 433.08,822.50 440.68,819.93 C455.14,815.06 470.32,809.43 490.50,801.47 C497.10,798.86 519.77,790.93 540.88,783.83 C561.99,776.74 584.94,768.64 591.88,765.84 C608.61,759.08 633.07,746.68 645.70,738.56 C655.74,732.10 657.68,731.09 656.55,732.93 C655.19,735.12 651.71,745.08 647.76,757.42 C647.75,757.42 647.75,757.42 647.74,757.41 C647.42,757.09 644.67,758.66 641.62,760.91 C626.51,772.08 599.14,788.30 581.98,796.28 C550.86,810.75 528.76,818.10 488.50,827.39 C465.87,832.61 456.44,835.33 457.84,836.24 ZM 550.52 356.09 C547.81,357.23 545.56,359.50 539.43,366.50 C528.30,379.21 522.56,386.97 518.81,394.38 C517.17,397.62 513.03,403.70 509.60,407.88 C506.18,412.07 502.33,417.08 501.05,419.00 C499.77,420.92 497.60,423.47 496.21,424.66 L 494.64 426.01 C494.94,418.81 495.99,411.11 497.54,406.00 C499.42,399.75 506.80,385.00 508.04,385.00 C508.50,385.00 509.12,385.79 509.44,386.75 C509.76,387.71 511.59,390.30 513.50,392.50 C516.71,396.18 517.10,396.36 518.35,394.76 C519.50,393.29 519.43,392.24 517.88,387.76 C516.88,384.87 516.05,381.49 516.03,380.25 C516.01,379.01 515.55,378.00 515.00,378.00 C510.61,378.00 523.51,367.38 534.50,361.95 C539.76,359.34 545.12,357.39 550.52,356.09 ZM 446.76 844.61 L 436.18 841.96 L 429.34 844.08 C425.58,845.24 419.80,847.16 416.50,848.33 C413.20,849.51 410.17,850.36 409.76,850.24 C409.42,850.13 408.84,850.78 408.10,851.96 C410.44,847.09 413.19,841.57 416.36,835.35 L 417.45 833.20 L 422.44 835.72 C428.91,839.00 437.26,842.03 446.76,844.61 ZM 453.89 755.28 C519.86,722.72 580.46,654.83 619.96,569.23 C623.83,560.84 627.00,553.55 627.00,553.05 C627.00,549.51 636.96,552.14 649.02,558.85 C655.85,562.65 658.15,563.54 658.62,562.54 C658.17,563.55 656.79,563.15 652.45,560.80 C649.02,558.94 646.53,558.13 646.14,558.74 C645.79,559.29 641.67,559.97 637.00,560.24 C632.33,560.51 627.64,561.10 626.59,561.54 C625.13,562.15 624.87,562.02 625.49,561.02 C626.06,560.10 625.92,559.93 625.06,560.47 C624.37,560.89 621.00,567.15 617.58,574.37 C578.28,657.26 518.41,723.43 453.89,755.28 ZM 770.76 379.11 C769.73,384.43 769.87,386.20 771.00,385.50 C771.55,385.16 772.00,385.43 772.00,386.10 C772.00,386.85 772.76,386.62 774.00,385.50 C775.64,384.02 776.00,383.96 776.00,385.19 C776.00,387.96 770.10,391.66 768.74,389.93 C768.92,388.03 769.68,384.05 770.76,379.11 ZM 618.75 831.94 C600.21,840.51 579.46,846.38 556.46,849.57 C581.52,845.62 601.27,840.01 618.75,831.94 ZM 647.59 757.94 C644.40,767.92 640.92,779.40 638.00,789.57 C641.26,777.83 644.83,765.57 645.94,762.67 C646.53,761.11 646.76,759.42 646.45,758.92 C646.14,758.41 646.43,758.00 647.11,758.00 C647.30,758.00 647.47,757.98 647.59,757.94 ZM 599.00 361.77 C590.05,357.37 578.93,354.68 568.73,354.13 C578.97,354.39 589.17,356.94 599.00,361.77 ZM 401.26 867.02 C398.88,873.27 397.00,879.33 397.19,881.32 C396.96,878.90 398.23,874.32 401.26,867.02 ZM 631.87 812.97 C631.74,813.60 631.63,814.16 631.55,814.66 C631.18,816.88 630.37,819.32 629.73,820.18 C630.24,818.90 631.04,816.20 631.87,812.97 ZM 614.28 826.82 C605.65,829.75 595.05,832.81 587.00,834.52 C594.04,833.03 605.17,829.81 614.28,826.82 ZM 552.25 840.16 C543.40,840.99 534.05,841.36 522.00,841.52 C517.41,841.58 512.72,841.59 508.32,841.57 C512.56,841.56 517.25,841.53 522.00,841.48 C534.08,841.34 543.42,840.98 552.25,840.16 ZM 781.56 338.34 C780.05,342.48 778.23,348.60 776.08,356.83 C778.00,349.39 779.84,342.87 780.94,339.95 C781.16,339.38 781.37,338.84 781.56,338.34 ZM 494.71 435.49 L 494.79 436.16 C495.43,441.59 496.35,446.49 497.33,450.04 C496.41,446.83 495.54,442.55 494.96,438.00 C494.86,437.21 494.78,436.37 494.71,435.49 ZM 487.50 841.01 C484.54,840.69 480.01,840.04 474.92,839.23 C479.74,839.95 484.59,840.64 487.97,841.05 C487.80,841.04 487.64,841.02 487.50,841.01 ZM 474.99 850.39 C470.20,849.74 465.49,848.92 460.55,847.87 C465.22,848.83 470.06,849.67 474.99,850.39 ZM 721.02 584.31 C721.06,586.44 721.07,588.88 721.06,591.79 C721.05,594.93 720.98,597.70 720.82,600.38 C721.04,595.23 721.12,589.27 721.02,584.31 ZM 717.75 564.50 C718.60,567.41 719.24,569.74 719.71,571.90 C719.17,569.64 718.45,566.88 717.75,564.50 ZM 769.14 395.16 C769.44,395.64 769.83,396.08 770.33,396.53 C769.78,396.08 769.40,395.66 769.14,395.16 ZM 658.64 562.48 C659.19,561.06 658.71,558.94 657.45,556.56 C658.71,558.94 659.19,561.06 658.65,562.48 C658.65,562.48 658.65,562.48 658.64,562.48 Z" fill="rgba(196,185,136,1)"/>
<path d="M 365.63 761.88 C358.52,754.75 357.68,745.40 362.83,730.74 C365.34,723.60 371.22,713.82 373.81,712.50 C374.89,711.95 379.31,709.37 383.63,706.76 C392.84,701.22 404.42,697.47 415.10,696.58 C421.37,696.05 422.94,696.22 424.03,697.54 C425.14,698.87 425.08,699.59 423.68,701.97 C421.71,705.30 421.50,708.00 423.22,708.00 C423.88,708.00 426.47,706.00 428.97,703.56 C431.46,701.12 435.30,698.46 437.50,697.65 C439.70,696.84 444.46,695.04 448.08,693.66 C458.19,689.81 469.01,688.48 479.31,689.81 C488.19,690.95 497.57,694.72 498.67,697.58 C498.98,698.40 498.41,701.20 497.39,703.79 C496.37,706.38 495.48,709.28 495.41,710.23 C495.33,711.18 494.75,712.60 494.11,713.37 C492.88,714.85 471.61,730.00 470.76,730.00 C470.49,730.00 468.54,727.05 466.43,723.44 C464.31,719.83 460.67,715.10 458.32,712.94 C454.62,709.53 453.42,709.00 449.39,709.00 C445.40,709.00 444.28,709.48 441.56,712.37 C437.24,716.95 434.43,724.78 432.48,737.69 C431.58,743.64 430.50,749.17 430.08,750.00 C428.47,753.20 391.50,763.89 376.25,765.57 L 370.00 766.26 Z" fill="rgba(225,91,77,1)"/>
<path d="M 334.00 809.32 C308.34,806.71 284.91,799.07 270.50,788.62 C265.15,784.74 263.75,785.14 266.69,789.69 L 268.50 792.50 L 266.00 790.88 C264.63,789.99 261.80,786.10 259.72,782.23 C259.23,781.32 258.78,780.40 258.37,779.48 C260.40,782.37 261.44,779.31 261.13,771.01 C260.82,762.94 262.21,756.36 264.60,754.50 C265.61,753.72 265.60,752.90 264.50,750.31 C270.05,761.68 286.84,771.95 308.16,776.95 C322.96,780.42 333.33,781.27 354.46,780.74 C390.61,779.83 418.72,772.63 453.89,755.28 C518.41,723.43 578.28,657.26 617.58,574.37 C621.00,567.15 624.37,560.89 625.06,560.47 C625.92,559.93 626.06,560.10 625.49,561.02 C624.87,562.02 625.13,562.15 626.59,561.54 C627.64,561.10 632.33,560.51 637.00,560.24 C641.67,559.97 645.79,559.29 646.14,558.74 C646.53,558.13 649.02,558.94 652.45,560.80 C656.88,563.20 658.23,563.57 658.65,562.48 C659.73,559.66 656.78,554.08 651.63,549.21 C645.55,543.46 640.41,540.60 632.38,538.51 C629.25,537.70 626.45,536.78 626.14,536.47 C624.45,534.78 638.75,526.34 647.93,523.61 C654.93,521.54 670.64,521.49 678.46,523.53 C697.01,528.36 711.68,543.66 717.75,564.50 C718.87,568.35 720.09,573.20 720.45,575.28 C721.45,581.07 721.17,603.52 720.00,610.39 C718.60,618.68 716.89,625.00 716.05,625.00 C715.66,625.00 712.11,630.96 708.15,638.25 C690.46,670.77 665.40,696.07 630.00,717.16 C606.32,731.27 582.96,741.61 541.50,756.34 C511.05,767.16 498.27,771.89 473.93,781.32 C430.01,798.34 402.13,805.91 372.14,808.95 C362.47,809.93 341.95,810.13 334.00,809.32 ZM 481.50 906.01 C456.21,903.67 430.47,898.42 412.77,891.99 C401.22,887.80 397.59,885.31 397.19,881.32 C396.74,876.66 407.68,849.59 409.76,850.24 C410.17,850.36 413.20,849.51 416.50,848.33 C419.80,847.16 425.58,845.24 429.34,844.08 L 436.18 841.96 L 449.84 845.38 C471.37,850.79 485.89,852.40 513.00,852.41 C554.00,852.41 589.18,845.60 618.75,831.94 C627.26,828.01 629.56,827.28 628.62,828.81 C627.63,830.41 623.01,860.85 621.45,876.00 C620.58,884.53 619.50,891.87 619.06,892.32 C616.72,894.71 582.94,901.35 557.00,904.53 C541.58,906.41 495.62,907.32 481.50,906.01 ZM 491.00 841.38 C484.59,840.82 459.79,837.02 458.00,836.32 C455.87,835.50 465.16,832.77 488.50,827.39 C528.76,818.10 550.86,810.75 581.98,796.28 C599.14,788.30 626.51,772.08 641.62,760.91 C644.67,758.66 647.42,757.09 647.74,757.41 C648.07,757.73 647.78,758.00 647.11,758.00 C646.43,758.00 646.14,758.41 646.45,758.92 C646.76,759.42 646.53,761.11 645.94,762.67 C644.06,767.59 635.12,799.31 632.60,809.98 C631.27,815.61 629.80,820.55 629.34,820.95 C626.79,823.18 599.97,831.77 587.00,834.52 C562.31,839.75 549.02,841.17 522.00,841.48 C507.42,841.64 493.48,841.60 491.00,841.38 ZM 553.00 501.37 C548.73,500.55 540.67,497.81 536.81,495.87 C531.64,493.28 523.17,480.97 517.64,468.00 C516.94,466.35 516.11,463.94 515.32,461.31 C517.44,467.52 521.18,475.00 522.31,475.00 C522.81,475.00 524.58,476.15 526.25,477.56 C529.79,480.54 540.15,485.96 544.50,487.12 C548.28,488.12 558.46,487.47 562.79,485.94 L 566.08 484.78 L 561.45 480.42 C565.38,483.36 569.87,484.92 574.79,484.96 C578.12,484.99 581.46,484.29 583.79,483.08 C592.35,478.65 599.94,467.93 603.56,455.46 C601.56,463.40 598.28,469.98 593.91,474.55 C590.63,477.98 590.14,479.52 592.75,478.16 C593.71,477.66 595.40,477.61 596.50,478.06 C599.73,479.36 604.44,479.11 609.12,477.40 C611.53,476.52 614.72,475.82 616.22,475.83 C617.34,475.85 618.20,475.57 619.25,474.61 C610.52,485.63 598.83,494.32 585.28,499.15 C580.98,500.68 576.42,501.29 567.50,501.53 C560.90,501.71 554.38,501.64 553.00,501.37 ZM 511.45 444.37 C510.53,443.40 508.46,445.19 505.39,449.67 C503.25,452.79 500.96,455.51 500.31,455.73 C498.63,456.29 496.10,447.32 494.79,436.16 L 493.70 426.82 L 496.21 424.66 C497.60,423.47 499.77,420.92 501.05,419.00 C502.33,417.08 506.18,412.07 509.60,407.88 C513.03,403.70 517.17,397.62 518.81,394.38 C520.33,391.38 522.17,388.33 524.56,384.91 C519.58,392.39 512.41,406.42 511.58,410.50 C511.24,412.15 510.73,414.62 510.45,416.00 C509.20,421.98 509.72,433.29 511.45,444.37 ZM 796.65 334.20 C795.76,334.29 794.84,334.33 793.97,334.33 C789.62,334.33 788.41,334.68 788.33,335.92 C788.27,336.79 786.38,343.45 784.12,350.72 C781.87,357.99 779.36,367.67 778.56,372.22 C777.30,379.30 776.62,382.98 776.00,385.09 C775.98,383.96 775.59,384.06 774.00,385.50 C772.76,386.62 772.00,386.85 772.00,386.10 C772.00,385.43 771.55,385.16 771.00,385.50 C769.11,386.67 770.00,380.91 774.50,362.99 C778.74,346.13 781.81,336.37 783.93,333.06 C784.70,331.85 785.10,331.84 786.48,332.98 C787.83,334.10 792.61,334.52 796.65,334.20 ZM 364.90 469.64 C361.82,469.01 358.58,467.76 357.70,466.87 C354.32,463.43 349.37,452.84 346.78,443.61 C348.50,448.78 350.92,450.75 357.27,454.97 C362.70,458.57 367.37,460.84 371.00,461.63 C376.33,462.80 386.00,463.42 386.00,462.59 C386.00,462.37 384.36,460.23 382.35,457.84 C381.72,457.10 381.12,456.32 380.54,455.52 C382.15,457.60 383.97,459.42 386.02,460.90 L 390.13 463.88 L 386.90 465.55 C382.93,467.60 373.08,471.04 371.59,470.89 C370.99,470.83 367.98,470.27 364.90,469.64 ZM 514.31 645.98 C514.29,645.95 514.28,645.92 514.27,645.89 L 512.24 641.29 L 525.16 637.02 C532.27,634.68 538.39,633.05 538.74,633.41 C540.30,634.97 535.77,648.90 531.77,656.42 C531.95,655.79 531.69,655.43 531.05,655.03 C529.83,654.28 529.84,653.38 531.16,648.67 C533.47,640.34 532.74,639.79 522.76,642.35 C518.22,643.51 514.34,644.56 514.14,644.68 C513.96,644.78 514.04,645.26 514.31,645.98 ZM 350.71 381.41 C352.12,376.70 352.15,375.00 351.05,375.00 C350.41,375.00 350.10,374.65 350.36,374.23 C350.62,373.81 348.59,373.40 345.85,373.32 C343.59,373.26 342.36,373.14 341.48,373.63 C340.48,374.19 339.92,375.52 338.78,378.57 C338.92,377.94 339.00,377.37 339.00,376.94 C339.00,374.32 349.16,354.16 352.44,350.25 C353.38,349.14 354.24,347.91 354.96,346.70 C354.01,348.49 352.77,350.68 351.22,353.32 C346.97,360.52 346.84,362.68 350.28,369.21 C352.08,372.61 354.01,372.04 357.70,367.00 C358.40,366.04 359.32,364.83 360.31,363.58 C356.55,368.89 353.32,374.94 350.71,381.41 ZM 793.86 296.07 C792.75,296.24 792.21,296.61 792.80,297.20 C794.77,299.17 794.18,301.72 790.90,305.47 C787.01,309.90 784.34,310.03 782.59,305.88 L 781.52 303.33 C783.93,299.40 788.20,296.53 793.86,296.07 ZM 378.70 348.18 C374.20,350.41 368.75,353.89 366.05,356.53 C367.69,354.39 369.10,352.11 369.41,351.00 C369.79,349.62 371.06,346.36 372.22,343.75 C373.91,339.96 374.84,339.00 376.78,339.00 C378.70,339.00 379.06,339.37 378.50,340.75 C376.61,345.42 375.81,348.14 376.21,348.54 C376.37,348.71 377.38,348.55 378.70,348.18 ZM 422.71 394.35 C424.79,399.19 424.95,399.04 425.60,396.47 C426.01,394.83 425.87,392.09 425.32,388.84 C426.57,395.98 427.17,403.23 426.24,404.16 C425.53,404.87 424.98,403.84 424.48,400.85 C424.11,398.67 423.51,396.48 422.71,394.35 ZM 373.10 439.05 C369.77,425.97 370.71,411.05 374.93,398.91 C370.79,411.29 370.05,426.38 373.10,439.05 ZM 255.18 766.57 C254.90,760.17 256.65,754.20 260.41,749.50 L 262.81 746.50 L 262.83 746.53 L 260.43 749.50 C257.08,753.64 255.24,760.24 255.18,766.57 ZM 553.93 472.02 C550.85,467.54 548.76,462.50 547.53,456.54 C549.11,462.62 551.28,467.81 553.93,472.02 ZM 343.20 421.16 C342.88,412.58 343.83,404.21 346.08,395.84 C344.03,404.25 343.01,412.90 343.20,421.16 ZM 585.42 391.42 C582.93,390.50 580.28,390.03 577.50,390.03 C574.90,390.04 572.58,390.31 570.45,390.90 C575.31,389.34 580.47,389.48 585.42,391.42 ZM 425.11 387.72 C424.15,382.73 422.32,376.77 420.09,371.83 C421.20,374.09 422.15,376.36 422.89,378.59 C423.71,381.06 424.48,384.34 425.11,387.72 ZM 548.83 417.58 C550.25,412.28 552.27,407.76 555.02,403.67 C552.74,407.14 551.02,411.07 549.02,417.01 C548.96,417.19 548.89,417.38 548.83,417.58 ZM 601.83 409.35 C599.28,403.09 595.81,398.22 591.63,394.94 C596.09,398.32 599.48,403.10 601.83,409.35 ZM 635.97 427.81 C635.91,437.04 634.09,446.08 630.80,454.50 C634.04,445.88 635.91,436.48 635.97,427.81 ZM 530.82 658.09 C530.28,658.97 529.77,659.71 529.29,660.23 C527.43,662.28 526.28,662.47 524.00,660.39 C526.50,662.47 528.01,661.87 530.38,658.70 C530.54,658.48 530.69,658.28 530.82,658.09 ZM 520.75 656.92 C518.57,654.34 517.08,651.94 515.33,648.22 C516.69,650.90 518.90,654.51 520.75,656.92 ZM 413.24 360.71 C409.28,355.58 404.52,350.78 400.39,347.88 C404.80,350.90 409.32,355.47 413.24,360.71 ZM 390.71 344.48 C390.34,344.57 389.96,344.70 389.53,344.85 C387.96,345.42 386.13,345.89 385.19,345.98 C387.60,345.18 389.32,344.69 390.71,344.48 ZM 413.07 379.67 C415.94,382.07 418.46,385.38 420.57,389.57 C418.52,385.66 415.90,382.18 413.07,379.67 ZM 311.21 381.28 C311.37,379.73 312.68,377.24 314.65,373.27 C313.07,376.46 311.72,379.64 311.21,381.28 ZM 809.84 304.30 C808.61,301.77 806.58,299.62 803.80,297.96 C806.51,299.42 808.59,301.62 809.84,304.30 ZM 397.44 375.21 C398.39,375.07 399.36,375.00 400.35,375.00 C401.56,375.00 402.75,375.10 403.90,375.31 C401.82,375.01 399.56,374.98 397.44,375.21 ZM 528.26 379.90 C530.89,376.50 534.04,372.70 537.87,368.28 C534.52,372.16 530.89,376.56 528.26,379.90 ZM 323.83 383.93 C319.50,383.90 316.45,383.92 314.43,383.69 C316.37,383.84 319.33,383.90 323.83,383.93 ZM 356.67 340.00 C357.37,340.00 357.54,340.59 357.14,341.92 C357.43,340.76 357.32,340.00 356.67,340.00 ZM 772.87 389.25 C770.87,390.56 769.09,390.80 768.60,389.70 C769.12,390.87 771.09,390.39 772.87,389.25 ZM 788.53 326.60 C790.60,327.65 793.06,327.61 799.22,327.19 C793.07,327.61 790.62,327.68 788.53,326.60 ZM 513.11 453.12 C512.71,451.44 512.39,449.92 512.20,448.72 C512.48,450.21 512.78,451.68 513.11,453.12 ZM 397.38 346.05 C396.17,345.44 395.23,345.01 394.42,344.72 C395.26,344.99 396.12,345.40 397.18,345.94 C397.25,345.98 397.31,346.01 397.38,346.05 ZM 337.11 383.06 L 336.75 384.02 L 336.67 384.02 L 337.11 383.06 ZM 774.82 387.62 C774.61,387.87 774.39,388.08 774.14,388.30 C774.13,388.30 774.13,388.30 774.13,388.31 C774.37,388.09 774.61,387.86 774.82,387.62 Z" fill="rgba(234,222,180,1)"/>
<path d="M 789.47 405.10 C784.96,403.17 784.68,401.87 785.23,385.48 C785.52,376.96 785.40,370.00 784.96,370.00 C784.52,370.00 782.73,376.19 780.98,383.75 C777.63,398.19 777.28,399.82 776.58,399.99 C776.47,400.01 776.34,400.00 776.18,400.00 C775.69,400.00 773.77,398.97 771.90,397.72 C769.24,395.94 768.45,394.68 768.29,391.97 C768.17,390.06 768.31,389.04 768.60,389.69 C769.19,391.03 771.67,390.41 774.14,388.30 C775.85,386.83 776.19,385.60 778.56,372.22 C779.36,367.67 781.87,357.99 784.12,350.72 C786.38,343.45 788.27,336.79 788.33,335.92 C788.41,334.68 789.62,334.33 793.97,334.33 C797.02,334.33 800.57,333.76 801.87,333.07 C803.80,332.04 804.48,332.05 805.55,333.15 C809.34,337.04 821.18,391.71 819.43,397.23 C818.74,399.38 812.87,402.27 810.81,401.47 C809.98,401.16 808.63,395.69 807.16,386.73 C805.88,378.91 804.49,372.14 804.07,371.71 C803.66,371.27 803.02,377.79 802.66,386.18 C802.10,399.00 801.70,401.74 800.19,403.26 C798.08,405.37 792.38,406.34 789.47,405.10 ZM 789.98 251.30 C789.95,209.11 789.85,208.53 781.83,203.31 L 777.50 200.50 L 783.84 200.20 C792.65,199.78 796.64,201.93 800.26,209.01 L 803.02 214.41 L 802.76 250.95 L 802.50 287.50 L 796.25 287.80 L 790.00 288.10 ZM 785.48 324.29 C779.62,318.92 777.80,312.73 780.14,306.03 L 781.28 302.76 L 782.59 305.88 C784.34,310.03 787.01,309.90 790.90,305.47 C794.18,301.72 794.77,299.17 792.80,297.20 C791.04,295.44 799.34,295.61 802.80,297.40 C810.00,301.15 812.79,307.97 810.41,316.00 C808.76,321.56 803.42,326.90 799.22,327.19 C790.13,327.82 789.09,327.60 785.48,324.29 Z" fill="rgba(242,169,60,1)"/>
<path d="M 257.54 778.09 C253.45,770.17 254.84,756.42 260.43,749.50 L 262.85 746.50 L 264.37 750.00 C265.60,752.83 265.64,753.69 264.60,754.50 C262.21,756.36 260.82,762.94 261.13,771.01 C261.48,780.36 260.12,783.06 257.54,778.09 ZM 287.39 756.08 C283.02,753.89 278.37,750.96 277.08,749.58 L 274.71 747.07 L 276.47 739.78 C278.50,731.39 280.28,727.49 282.46,726.65 C286.48,725.11 289.34,729.45 292.94,742.50 C294.15,746.90 295.64,752.20 296.24,754.28 C297.99,760.29 296.44,760.60 287.39,756.08 ZM 441.37 744.51 C440.58,742.45 444.61,724.24 446.50,721.36 C447.35,720.06 448.66,719.00 449.42,719.00 C451.35,719.00 456.55,725.18 459.48,730.96 L 461.95 735.84 L 457.73 738.29 C452.54,741.31 443.27,746.00 442.50,746.00 C442.19,746.00 441.68,745.33 441.37,744.51 ZM 521.84 658.25 C518.69,654.76 513.26,645.20 514.14,644.68 C514.34,644.56 518.22,643.51 522.76,642.35 C532.74,639.79 533.47,640.34 531.16,648.67 C529.84,653.38 529.83,654.28 531.05,655.03 C532.23,655.76 532.11,656.37 530.38,658.70 C527.40,662.69 525.78,662.60 521.84,658.25 ZM 544.50 487.12 C540.15,485.96 529.79,480.54 526.25,477.56 C524.58,476.15 522.81,475.00 522.31,475.00 C521.03,475.00 516.43,465.47 514.59,459.00 C510.57,444.87 508.63,424.74 510.45,416.00 C510.73,414.62 511.24,412.15 511.58,410.50 C512.46,406.14 520.56,390.47 525.53,383.50 C527.88,380.20 533.94,372.77 538.99,367.00 C547.16,357.65 548.68,356.37 552.83,355.35 C565.63,352.18 584.97,354.87 599.00,361.77 C609.34,366.85 621.37,378.75 626.04,388.50 C629.19,395.08 629.42,396.31 629.94,409.00 L 630.50 422.50 L 633.25 422.31 C635.95,422.13 636.00,422.22 635.97,427.81 C635.88,441.76 631.08,457.60 623.47,469.04 C619.70,474.72 618.48,475.86 616.22,475.83 C614.72,475.82 611.53,476.52 609.12,477.40 C604.44,479.11 599.73,479.36 596.50,478.06 C595.40,477.61 593.71,477.66 592.75,478.16 C590.14,479.52 590.63,477.98 593.91,474.55 C602.15,465.94 606.49,450.20 605.75,431.67 C604.96,411.76 599.40,399.13 588.73,393.02 C578.84,387.34 567.48,389.36 559.32,398.25 C550.77,407.56 547.04,418.51 546.29,436.50 C545.44,456.79 549.43,469.12 560.09,479.14 L 566.08 484.78 L 562.79 485.94 C558.46,487.47 548.28,488.12 544.50,487.12 ZM 371.00 461.63 C367.37,460.84 362.70,458.57 357.27,454.97 C347.88,448.73 347.08,447.39 344.43,433.36 C339.69,408.21 348.72,375.51 365.49,357.10 C369.28,352.95 381.42,346.00 384.90,346.00 C385.70,346.00 387.78,345.48 389.53,344.85 C392.26,343.87 393.35,344.03 397.43,346.07 C404.39,349.55 414.77,360.99 419.32,370.20 C423.63,378.93 426.74,391.94 425.60,396.47 C424.88,399.33 424.75,399.20 421.94,392.52 C417.10,381.05 409.64,375.00 400.35,375.00 C372.74,375.00 360.41,431.76 382.35,457.84 C384.36,460.23 386.00,462.37 386.00,462.59 C386.00,463.42 376.33,462.80 371.00,461.63 ZM 314.09 441.17 C308.95,431.10 305.23,412.65 306.61,404.06 L 307.26 400.00 L 319.26 400.00 L 331.26 400.00 L 330.49 406.25 C330.06,409.69 329.61,416.77 329.49,422.00 L 329.26 431.50 L 322.65 438.24 L 316.03 444.98 L 314.09 441.17 ZM 566.99 430.55 C564.12,428.99 560.55,423.02 559.67,418.31 C559.34,416.55 559.74,412.88 560.55,410.15 C563.49,400.26 572.73,396.10 580.81,401.03 C589.28,406.19 588.92,423.65 580.21,429.85 C576.74,432.32 570.82,432.64 566.99,430.55 ZM 390.55 411.91 C384.60,406.69 383.49,396.80 388.02,389.47 C391.31,384.14 398.12,382.46 404.03,385.52 C412.76,390.03 412.15,406.54 403.02,412.75 C398.42,415.87 394.78,415.62 390.55,411.91 ZM 311.00 382.25 C311.00,381.37 312.64,377.33 314.65,373.27 C319.10,364.26 329.74,352.52 338.00,347.50 C343.60,344.10 353.80,340.00 356.67,340.00 C358.50,340.00 356.03,345.98 352.44,350.25 C349.16,354.16 339.00,374.32 339.00,376.94 C339.00,378.02 338.48,380.06 337.83,381.46 L 336.67 384.02 L 323.83 383.93 C312.79,383.86 311.00,383.62 311.00,382.25 Z" fill="rgba(251,248,238,1)"/>
</g>
</svg>